<?xml version="1.0" encoding="iso-8859-1"?>
<!-- Generator: Adobe Illustrator 19.0.0, SVG Export Plug-In . SVG Version: 6.00 Build 0)  -->
<svg version="1.1" id="Capa_1" xmlns="http://www.w3.org/2000/svg" xmlns:xlink="http://www.w3.org/1999/xlink" x="0px" y="0px"
	 viewBox="0 0 512 512" style="enable-background:new 0 0 512 512;" xml:space="preserve">
<path style="fill:#A67E74;" d="M346.279,152.684l-48.069-25.088l25.11-33.427c4.554-6.063,12.828-7.937,19.549-4.428l8.927,4.659
	c6.722,3.508,9.916,11.368,7.547,18.57L346.279,152.684z"/>
<path style="fill:#FADA6D;" d="M8.6,353.454L8.6,353.454c17.606,42.712,59.24,70.582,105.437,70.582h41.861
	c32.207,0,62.622-14.822,82.466-40.19l0,0c5.888-7.527,17.14-7.923,23.543-0.829l0,0c23.572,26.114,57.104,41.02,92.284,41.02
	h16.505c53.265,0,102.849-27.175,131.507-72.073l0,0c7.475-11.711-4.824-25.986-17.511-20.327l-30.726,13.706
	c-10.68,4.763-22.241,7.225-33.935,7.225l0,0c-40.906,0-75.759-29.699-82.25-70.087l0,0c-2.305-14.339-0.631-29.036,4.839-42.491
	l12.775-31.423c16.709-41.102-14.828-85.674-59.148-83.594l0,0c-20.48,0.961-39.096,12.185-49.506,29.848L154.098,312
	c-15.115,25.646-42.666,41.387-72.434,41.387l0,0c-14.289,0-28.342-3.642-40.833-10.581l-12.479-6.933
	C16.765,329.436,3.549,341.2,8.6,353.454z"/>
<path style="fill:#F2C55A;" d="M261.907,383.016L261.907,383.016c23.572,26.114,57.104,41.02,92.284,41.02h16.504
	c45.351,0,88.024-19.71,117.394-53.276c-237.11,92.022-269.032-120.164-237.41-221.792c-1.413,1.864-2.737,3.809-3.941,5.851
	l-92.643,157.18c-15.115,25.646-42.666,41.387-72.434,41.387l0,0c-14.289,0-28.342-3.642-40.833-10.581l-12.479-6.933
	c-11.586-6.437-24.802,5.328-19.751,17.581l0,0c17.606,42.711,59.24,70.582,105.437,70.582h41.861
	c32.207,0,62.622-14.822,82.466-40.19l0,0C244.252,376.319,255.504,375.922,261.907,383.016z"/>
<g>
	<path style="fill:#EBAC40;" d="M140.953,424.035c2.434-3.322,4.098-7.563,5.102-12.696c2.835-14.492-7.561-25.833-25.518-24.888
		c-17.957,0.945-21.107,6.616-27.408,12.917c-3.704,3.704-4.68,14.812,2.445,23.149c6.04,0.99,12.208,1.518,18.463,1.518
		L140.953,424.035L140.953,424.035z"/>
	<path style="fill:#EBAC40;" d="M384.616,346.787c0.198-0.658,0.356-1.287,0.493-1.903c-10.807-4.997-20.398-12.251-28.139-21.213
		c-14.538-1.97-26.752,3.262-22.055,16.408c4.517,12.642-4.665,22.732,23.229,21.313
		C373.384,360.617,380.152,361.591,384.616,346.787z"/>
</g>
<g>
	
		<ellipse transform="matrix(0.3381 -0.9411 0.9411 0.3381 -8.6701 360.9593)" style="fill:#EA7786;" cx="252.278" cy="186.643" rx="12.282" ry="15.424"/>
	
		<ellipse transform="matrix(-0.3381 0.9411 -0.9411 -0.3381 645.1071 -23.8488)" style="fill:#EA7786;" cx="330.94" cy="214.933" rx="12.282" ry="15.424"/>
</g>
<g>
	<path style="fill:#EBAC40;" d="M200.531,303.64c-1.919,0-3.839-0.732-5.303-2.197c-2.929-2.929-2.929-7.678,0-10.606l10.087-10.087
		c2.929-2.929,7.678-2.929,10.606,0c2.929,2.929,2.929,7.678,0,10.606l-10.087,10.087C204.37,302.907,202.451,303.64,200.531,303.64
		z"/>
	<path style="fill:#EBAC40;" d="M195.794,334.81c-1.919,0-3.839-0.732-5.303-2.197c-2.929-2.929-2.929-7.678,0-10.606l9.781-9.781
		c2.929-2.929,7.678-2.929,10.606,0c2.929,2.929,2.929,7.678,0,10.607l-9.781,9.781C199.632,334.078,197.714,334.81,195.794,334.81z
		"/>
</g>
<path d="M270.125,235.367c-22.45,50.33-28.44,98.162-28.44,118.489c0,4.142,3.358,7.5,7.5,7.5c4.142,0,7.5-3.358,7.5-7.5
	c0-19.142,5.716-64.351,27.139-112.379c1.688-3.783-0.012-8.217-3.794-9.905C276.248,229.887,271.814,231.584,270.125,235.367z
	 M291.799,200.253c2.079,0.747,4.247,1.117,6.408,1.117c3.204,0,6.394-0.812,9.257-2.41c3.617-2.019,4.912-6.587,2.894-10.204
	c-2.019-3.617-6.589-4.913-10.204-2.894c-0.592,0.33-1.804,0.807-3.283,0.274c-1.477-0.53-2.111-1.67-2.357-2.302
	c-1.507-3.857-5.853-5.768-9.714-4.26c-3.858,1.506-5.766,5.855-4.261,9.713C282.536,194.402,286.64,198.399,291.799,200.253z
	 M257.81,175.628c-1.4,3.898,0.624,8.194,4.522,9.594c0.838,0.301,1.693,0.444,2.536,0.444c3.074,0,5.959-1.906,7.059-4.966
	l1.842-5.126c1.4-3.898-0.624-8.194-4.522-9.594c-3.895-1.4-8.194,0.624-9.595,4.522L257.81,175.628z M506.691,330.39
	c-6.343-7.363-16.175-9.564-25.055-5.604l-30.726,13.706c-9.781,4.363-20.17,6.575-30.88,6.575
	c-18.002,0-35.464-6.431-49.166-18.106c-13.703-11.677-22.822-27.896-25.679-45.669c-2.087-12.989-0.571-26.293,4.383-38.477
	l12.774-31.422c8.595-21.142,6.135-44.819-6.525-63.7l10.649-32.376c3.534-10.74-1.177-22.331-11.2-27.563l-8.927-4.659
	c-10.024-5.232-22.227-2.467-29.016,6.573l-20.882,27.798c-0.183,0.007-0.365,0.008-0.547,0.017
	c-5.506,0.258-10.972,1.185-16.246,2.752c-3.971,1.18-6.233,5.355-5.053,9.326c1.181,3.97,5.354,6.232,9.326,5.053
	c4.115-1.223,8.38-1.946,12.677-2.148c18.265-0.855,35.435,7.534,45.986,22.444c10.55,14.91,12.742,33.914,5.862,50.834
	l-12.773,31.422c-5.988,14.725-7.819,30.807-5.298,46.505c3.423,21.291,14.346,40.721,30.761,54.707
	c16.413,13.987,37.33,21.689,58.895,21.689c12.829,0,25.274-2.65,36.991-7.876l30.725-13.706c4.103-1.829,6.839,0.835,7.581,1.696
	c0.741,0.86,2.972,3.962,0.555,7.748c-7.948,12.452-17.674,23.614-28.907,33.177c-3.154,2.685-3.534,7.419-0.85,10.572
	c1.483,1.743,3.592,2.639,5.715,2.639c1.719,0,3.446-0.587,4.857-1.789c12.37-10.53,23.078-22.819,31.829-36.529
	C513.753,347.804,513.033,337.753,506.691,330.39z M352.217,110.626l-7.866,23.914c-8.65-7.683-19.074-13.001-30.335-15.501
	l15.299-20.366c2.358-3.141,6.6-4.101,10.082-2.284l8.928,4.659C351.809,102.867,353.446,106.894,352.217,110.626z M437.954,400.433
	c-20.738,10.535-43.995,16.103-67.259,16.103H354.19c-32.999,0-64.606-14.049-86.716-38.545c-4.539-5.029-11.021-7.781-17.796-7.538
	c-6.771,0.239-13.048,3.436-17.221,8.772c-18.549,23.711-46.454,37.312-76.559,37.312h-41.861c-43.327,0-81.992-25.883-98.504-65.94
	c-1.633-3.961,0.88-6.619,1.689-7.339s3.74-2.908,7.486-0.828l12.479,6.933c13.573,7.537,28.952,11.522,44.476,11.522
	c32.276,0,62.506-17.272,78.895-45.078l92.643-157.18c1.598-2.711,3.447-5.294,5.497-7.68c2.7-3.141,2.343-7.876-0.799-10.577
	c-3.14-2.699-7.876-2.342-10.577,0.799c-2.627,3.057-4.997,6.368-7.044,9.841l-92.643,157.18
	c-13.705,23.251-38.984,37.695-65.974,37.695c-12.983,0-25.842-3.333-37.191-9.637l-12.479-6.933
	c-8.106-4.503-17.818-3.428-24.743,2.737c-6.926,6.165-9.117,15.687-5.583,24.259c18.836,45.696,62.945,75.223,112.371,75.223
	h41.861c34.751,0,66.962-15.698,88.373-43.068c1.46-1.866,3.568-2.94,5.936-3.023c2.373-0.078,4.546,0.839,6.134,2.598
	c24.949,27.641,60.614,43.494,97.851,43.494h16.505c25.612,0,51.219-6.131,74.051-17.729c3.693-1.876,5.166-6.39,3.29-10.084
	C446.161,400.029,441.645,398.558,437.954,400.433z M326.629,207.855c3.074,0,5.959-1.906,7.059-4.966l1.842-5.126
	c1.4-3.898-0.624-8.194-4.522-9.594c-3.894-1.4-8.193,0.623-9.595,4.522l-1.842,5.126c-1.4,3.898,0.624,8.194,4.522,9.594
	C324.931,207.713,325.787,207.855,326.629,207.855z"/>
<g>
</g>
<g>
</g>
<g>
</g>
<g>
</g>
<g>
</g>
<g>
</g>
<g>
</g>
<g>
</g>
<g>
</g>
<g>
</g>
<g>
</g>
<g>
</g>
<g>
</g>
<g>
</g>
<g>
</g>
</svg>
