<?xml version="1.0" encoding="iso-8859-1"?>
<!-- Generator: Adobe Illustrator 19.0.0, SVG Export Plug-In . SVG Version: 6.00 Build 0)  -->
<svg version="1.1" id="Capa_1" xmlns="http://www.w3.org/2000/svg" xmlns:xlink="http://www.w3.org/1999/xlink" x="0px" y="0px"
	 viewBox="0 0 512 512" style="enable-background:new 0 0 512 512;" xml:space="preserve">
<circle style="fill:#FFD15C;" cx="256" cy="256" r="255.999"/>
<circle style="fill:#FFDC8D;" cx="256" cy="213.295" r="213.295"/>
<path style="fill:#E8E8E8;" d="M326.846,151.06l-21.461,24.618l-19.425-16.934c-0.641-0.559-1.324-1.045-2.034-1.454l17.497-20.07
	c2.5,3.427,5.975,6.207,10.215,7.867L326.846,151.06z"/>
<path style="fill:#FFD15C;" d="M408.014,157.112l-54.09,62.047c-0.724-1.39-1.713-2.66-2.959-3.747l-17.763-15.485l46.883-53.781
	L408.014,157.112z"/>
<path style="fill:#EDBB4C;" d="M395.393,171.589l-16.499,18.926c0,0-10.202-12.18-27.929-10.966l16.499-18.926L395.393,171.589z"/>
<path style="fill:#D6D6D6;" d="M445.351,41.506l-49.432,9.483c-4.492-1.761-17.312-20.773-13.026-29.695
	c0.686-4.68,2.691-9.13,5.859-12.764c1.823-2.092,4.029-3.912,6.596-5.346c11.987-6.723,27.154-2.452,33.871,9.541L445.351,41.506z"
	/>
<path style="fill:#E8E8E8;" d="M456.877,124.915l1.288-3.287c3.713-9.458,0.762-19.883-6.587-26.104l9.193,3.609
	c11.888,4.665,25.311-1.185,29.977-13.074l1.288-3.287c4.665-11.888-1.185-25.311-13.079-29.981l-32.372-12.704l-48.889-19.189
	c-4.492-1.761-9.201-2.024-13.568-1.022c-7.213,1.635-13.503,6.699-16.408,14.095l-1.289,3.277
	c-3.719,9.47-0.755,19.903,6.605,26.12l-9.211-3.615c-11.888-4.665-25.31,1.185-29.977,13.074l-1.289,3.277
	c-3.79,9.652-0.644,20.31,7.029,26.478l-9.758-3.831c-11.888-4.665-25.316,1.191-29.981,13.079l-1.289,3.277
	c-3.005,7.648-1.648,15.936,2.864,22.114c2.5,3.427,5.975,6.207,10.215,7.867l15.208,5.974l0.005-0.006l36.47,14.321l27.929,10.966
	l1.649,0.649c11.888,4.665,25.31-1.185,29.981-13.079l1.284-3.281c3.786-9.646,0.647-20.302-7.026-26.475l9.761,3.833
	C438.789,142.655,452.212,136.803,456.877,124.915z"/>
<path style="fill:#D6D6D6;" d="M351.784,108.498l9.063,3.56l0.005-0.005l6.454,2.534c-2.168-1.492-4.034-3.315-5.541-5.38
	c-4.512-6.178-5.869-14.467-2.864-22.114l1.289-3.276c3.992-10.169,14.393-15.918,24.759-14.45l9.77,3.838l0.005-0.005l6.454,2.534
	c-2.168-1.491-4.034-3.315-5.541-5.38c-4.512-6.178-5.869-14.467-2.864-22.114l1.289-3.277
	c4.665-11.888,18.093-17.744,29.981-13.079l-26.341-10.989c-11.888-4.665-25.316,1.191-29.981,13.079l-1.289,3.277
	c-3.005,7.648-1.649,15.936,2.864,22.114c1.207,1.654,2.645,3.151,4.282,4.451l-9.747-4.067
	c-11.888-4.665-25.316,1.191-29.981,13.079l-1.289,3.276c-3.005,7.648-1.649,15.936,2.864,22.114
	c1.35,1.849,2.993,3.501,4.877,4.901l-10.47-4.368c-11.888-4.665-25.316,1.191-29.981,13.079l-1.289,3.276
	c-3.005,7.648-1.649,15.936,2.864,22.114l-12.357,14.174c14.896,0.737,25.423,13.841,25.423,13.841l12.357-14.174l0.005-0.005
	l6.454,2.534c-2.168-1.492-4.034-3.315-5.541-5.38c-4.512-6.178-5.869-14.467-2.864-22.114l1.289-3.277
	C330.288,112.376,341.147,106.589,351.784,108.498z"/>
<path style="fill:#E8E8E8;" d="M352.962,232.863l-1.298,1.489c-4.709,5.402-12.903,5.963-18.306,1.254l-3.845-3.352
	c5.406,4.712,5.967,12.907,1.258,18.309l-1.302,1.493c-0.513,0.589-1.069,1.12-1.655,1.589
	c-16.088-5.312-31.408-13.853-44.985-25.689c-13.576-11.836-24.127-25.847-31.584-41.068c0.385-0.645,0.835-1.267,1.345-1.853
	l1.301-1.493c4.709-5.402,12.903-5.964,18.306-1.254l-3.841-3.348c-5.398-4.706-5.964-12.903-1.254-18.306l1.298-1.489
	c4.15-4.761,11.005-5.757,16.264-2.707c0.715,0.411,1.397,0.899,2.039,1.458l65.001,56.665c1.247,1.087,2.236,2.354,2.961,3.746
	C357.086,222.903,356.582,228.711,352.962,232.863z"/>
<path style="fill:#5C5560;" d="M268.989,213.95c-7.129-8.381-13.049-17.482-17.741-27.062c0.385-0.645,0.835-1.267,1.345-1.853
	l1.301-1.493c4.709-5.402,12.903-5.964,18.306-1.254l-3.841-3.348c-5.398-4.706-5.964-12.903-1.254-18.306l1.298-1.489
	c4.15-4.761,11.005-5.757,16.268-2.704c0.711,0.406,1.393,0.894,2.034,1.454l19.015,16.576c-0.642-0.559-1.324-1.047-2.034-1.454
	c-5.262-3.053-12.118-2.056-16.268,2.704l-1.298,1.489c-4.709,5.402-4.144,13.599,1.254,18.306l3.845,3.352
	c-5.402-4.709-13.596-4.148-18.306,1.254l-1.302,1.493C268.555,205.122,267.719,209.804,268.989,213.95z"/>
<g>
	<circle style="fill:#F4F4F4;" cx="471.959" cy="75.012" r="11.358"/>
	<circle style="fill:#F4F4F4;" cx="435.565" cy="116.767" r="11.358"/>
	<circle style="fill:#F4F4F4;" cx="402.327" cy="154.896" r="11.358"/>
</g>
<path style="fill:#D6D6D6;" d="M217.744,59.208c14.75,42.121-4.265,87.879-42.826,107.76c-0.004,0.002-0.004,0.002-0.009,0.003
	c-3.626,1.871-7.425,3.51-11.385,4.896c-46.081,16.136-96.517-8.138-112.654-54.223c-16.136-46.08,8.138-96.516,54.218-112.653
	c3.96-1.387,7.952-2.476,11.953-3.276c0.004-0.002,0.004-0.002,0.009-0.003C159.589-6.806,202.997,17.093,217.744,59.208z"/>
<path style="fill:#E8E8E8;" d="M217.744,59.208c14.75,42.121-4.265,87.879-42.826,107.76c-0.004,0.002-0.004,0.002-0.009,0.003
	c-42.54,8.519-85.948-15.38-100.698-57.5C59.464,67.355,78.479,21.597,117.039,1.716c0.004-0.002,0.004-0.002,0.009-0.003
	C159.589-6.806,202.997,17.093,217.744,59.208z"/>
<g>
	<circle style="fill:#F4F4F4;" cx="167.863" cy="35.767" r="15.096"/>
	<circle style="fill:#F4F4F4;" cx="144.625" cy="20.589" r="8.37"/>
</g>
<path style="fill:#D6D6D6;" d="M166.084,81.951c-1.771-5.056-7.305-7.721-12.362-5.95c-5.056,1.771-7.721,7.305-5.95,12.362
	c2.32,6.626-1.183,13.903-7.807,16.223c-6.626,2.32-13.903-1.183-16.223-7.809c-1.771-5.056-7.305-7.721-12.362-5.95
	c-5.057,1.771-7.721,7.305-5.95,12.362c4.739,13.532,17.672,21.899,31.296,21.498l17.407,49.709
	c1.771,5.056,7.305,7.721,12.362,5.95c5.057-1.771,7.721-7.305,5.95-12.362l-17.407-49.709
	C165.934,110.091,170.822,95.484,166.084,81.951z"/>
<path style="fill:#5C5560;" d="M224.748,178.124c4.03,1.939,7.32,5.418,8.914,9.974c0.645,1.84,0.961,3.714,0.986,5.56l0.002,0.004
	c-8.104,5.387-17.011,9.863-26.62,13.227c-19.652,6.882-39.89,8.294-59.059,5.037c-7.036-1.19-13.928-3.011-20.593-5.431
	c0.379-0.164,0.773-0.317,1.171-0.457c-0.44,0.154-0.877,0.286-1.318,0.405c-7.081-2.567-13.904-5.805-20.37-9.666l-0.002-0.004
	c-0.215-0.469-0.412-0.956-0.586-1.454c-3.19-9.11,1.612-19.081,10.723-22.271l81.843-28.659c9.109-3.19,19.08,1.608,22.27,10.719
	c3.192,9.115-1.606,19.084-10.716,22.274C215.948,175.783,220.718,176.183,224.748,178.124z"/>
<path style="fill:#D6D6D6;" d="M160.675,195.139c-7.298,2.556-11.827,9.46-11.703,16.787c-7.036-1.19-13.928-3.011-20.593-5.431
	c0.379-0.164,0.773-0.317,1.171-0.457c-0.44,0.154-0.877,0.286-1.318,0.405c-7.081-2.567-13.904-5.805-20.37-9.666
	c-0.217-0.473-0.414-0.96-0.588-1.459c-3.19-9.11,1.612-19.081,10.723-22.271l31.124-10.899c-9.109,3.19-13.909,13.159-10.717,22.27
	C141.595,193.531,151.565,198.329,160.675,195.139z"/>
<path style="fill:#F4F4F4;" d="M220.039,199.611l-8.927,3.126c-4.171,1.461-8.737-0.737-10.198-4.908l0,0
	c-1.461-4.171,0.737-8.737,4.908-10.198l8.927-3.126c4.171-1.461,8.737,0.737,10.198,4.908l0,0
	C226.408,193.584,224.21,198.15,220.039,199.611z"/>
<path style="fill:#41B787;" d="M472.65,191.708l-1.149,12.737l-2.581,28.526l-17,187.81C404.961,476.557,334.619,512,256.001,512
	c-42.224,0-82.066-10.219-117.175-28.327c-30.26-15.611-57.01-37.073-78.743-62.892L40.491,204.456l-1.149-12.748H472.65z"/>
<g>
	<path style="fill:#4BC999;" d="M468.92,232.971l-17,187.81C404.961,476.557,334.619,512,256.001,512
		c-42.224,0-82.066-10.219-117.175-28.327l-17.868-197.517c-2.591-28.567,19.905-53.185,48.588-53.185H468.92z"/>
	<path style="fill:#4BC999;" d="M491.585,211.134c-471.225,0,0.05,0-471.175,0c-5.58,0-10.104-4.523-10.104-10.104v-31.179
		c0-5.58,4.523-10.104,10.104-10.104h471.175c5.58,0,10.104,4.523,10.104,10.104v31.179
		C501.688,206.611,497.165,211.134,491.585,211.134z"/>
</g>
<path style="fill:#FCFCFC;" d="M249.682,437.536v44.099c-20.666,0-34.07-0.112-42.711-2.598c-4.982-1.433-9.2-4.769-11.833-9.234
	l0,0c0-0.002,0-0.004-0.002-0.006c-1.649-4.563-4.26-15.054-0.267-22.934c2.644-5.222,9.411-5.375,11.453-9.328h43.361V437.536z"/>
<path style="fill:#5C5E70;" d="M213.409,384.022l22.001,44.001l-18.731-10.106c0,0-3.452,6.243-10.36,19.621
	c-2.042,3.952-4.384,8.528-7.028,13.752c-3.992,7.881-5.805,13.948-4.157,18.51l-23.217-39.367
	c-2.303-3.909-2.464-8.723-0.42-12.775l9.605-19.065l-17.341-10.108L213.409,384.022z"/>
<path style="fill:#FCFCFC;" d="M290.335,401.798l38.191-22.049c10.333,17.897,16.938,29.561,19.106,38.287
	c1.25,5.031,0.47,10.352-2.079,14.865l0,0c-0.002,0.001-0.003,0.002-0.004,0.005c-3.127,3.709-10.908,11.216-19.729,11.7
	c-5.845,0.322-9.36-5.463-13.804-5.255L290.335,401.798z"/>
<path style="fill:#5C5E70;" d="M262.127,459.967l27.105-41.054l0.612,21.274c0,0,7.133-0.132,22.172-0.838
	c4.444-0.208,9.579-0.467,15.424-0.789c8.821-0.484,14.982-1.947,18.109-5.656l-22.486,39.79c-2.233,3.949-6.323,6.495-10.853,6.751
	l-21.314,1.214l-0.084,20.072L262.127,459.967z"/>
<path style="fill:#FCFCFC;" d="M238.042,385.286l-38.191-22.049c10.333-17.897,17.132-29.449,23.605-35.691
	c3.731-3.598,8.73-5.583,13.914-5.631l0,0c0.002,0.001,0.003,0.002,0.006,0.001c4.776,0.854,15.167,3.838,19.996,11.236
	c3.201,4.902-0.05,10.838,2.351,14.582L238.042,385.286z"/>
<path style="fill:#5C5E70;" d="M302.523,380.631l-49.106-2.947l18.117-11.168c0,0-3.681-6.112-11.812-18.783
	c-2.402-3.744-5.194-8.061-8.395-12.963c-4.828-7.398-9.176-12.002-13.952-12.855l45.702-0.422
	c4.537-0.041,8.786,2.228,11.273,6.024l11.709,17.851l17.425-9.963L302.523,380.631z"/>
<g>
	<path style="fill:#FCFCFC;" d="M150.773,239.328c0-2.496,2.651-3.744,5.303-3.744h15.99c7.8,0,15.6,2.809,15.6,13.884
		c0,6.317-2.496,10.451-6.631,12.246c4.758,1.794,8.033,4.68,8.033,12.479v1.637c0,12.323-6.863,16.77-15.678,16.77h-17.315
		c-3.276,0-5.303-1.716-5.303-3.665V239.328z M162.861,257.034h8.19c2.964,0,4.446-2.73,4.446-5.381c0-2.73-1.482-5.461-4.446-5.461
		h-8.19V257.034z M170.661,281.994c3.9,0,6.24-2.184,6.24-7.176v-1.248c0-5.304-2.34-7.175-6.24-7.175h-7.8v15.599L170.661,281.994
		L170.661,281.994z"/>
	<path style="fill:#FCFCFC;" d="M222.3,239.251c0-2.574,2.963-3.667,6.083-3.667c2.963,0,6.083,1.092,6.083,3.667v35.41
		c0,13.415-8.658,18.407-19.656,18.407c-11.077,0-19.657-4.991-19.657-18.407v-35.41c0-2.574,2.964-3.667,6.083-3.667
		c2.964,0,6.084,1.092,6.084,3.667v35.41c0,5.304,2.808,7.799,7.488,7.799c4.68,0,7.488-2.496,7.488-7.799v-35.41H222.3z"/>
	<path style="fill:#FCFCFC;" d="M247.963,292.601c-2.652,0-5.303-1.248-5.303-3.744v-49.606c0-2.574,3.042-3.667,6.083-3.667
		c3.042,0,6.083,1.092,6.083,3.667v42.742h17.784c2.34,0,3.509,2.652,3.509,5.304s-1.169,5.304-3.509,5.304L247.963,292.601
		L247.963,292.601z"/>
	<path style="fill:#FCFCFC;" d="M281.038,239.328c0-2.496,2.651-3.744,5.303-3.744h15.99c7.8,0,15.6,2.809,15.6,13.884
		c0,6.317-2.496,10.451-6.631,12.246c4.758,1.794,8.033,4.68,8.033,12.479v1.637c0,12.323-6.863,16.77-15.678,16.77h-17.315
		c-3.276,0-5.303-1.716-5.303-3.665L281.038,239.328L281.038,239.328z M293.126,257.034h8.19c2.964,0,4.446-2.73,4.446-5.381
		c0-2.73-1.482-5.461-4.446-5.461h-8.19V257.034z M300.926,281.994c3.9,0,6.24-2.184,6.24-7.176v-1.248
		c0-5.304-2.34-7.175-6.24-7.175h-7.8v15.599L300.926,281.994L300.926,281.994z"/>
	<path style="fill:#FCFCFC;" d="M349.054,277.313c0-9.438-24.725-7.799-24.725-26.051c0-11.7,10.218-16.146,19.967-16.146
		c4.134,0,15.521,0.781,15.521,6.864c0,2.107-1.404,6.396-4.836,6.396c-2.809,0-4.289-2.963-10.686-2.963
		c-5.538,0-7.8,2.262-7.8,4.68c0,7.8,24.725,6.317,24.725,25.973c0,11.232-8.19,17.316-19.499,17.316
		c-10.218,0-18.798-4.991-18.798-10.14c0-2.652,2.34-6.552,5.304-6.552c3.667,0,6.006,5.771,13.259,5.771
		C345.077,282.462,349.054,281.057,349.054,277.313z"/>
</g>
<g>
</g>
<g>
</g>
<g>
</g>
<g>
</g>
<g>
</g>
<g>
</g>
<g>
</g>
<g>
</g>
<g>
</g>
<g>
</g>
<g>
</g>
<g>
</g>
<g>
</g>
<g>
</g>
<g>
</g>
</svg>
