<?xml version="1.0" encoding="iso-8859-1"?>
<!-- Generator: Adobe Illustrator 19.0.0, SVG Export Plug-In . SVG Version: 6.00 Build 0)  -->
<svg version="1.1" id="Capa_1" xmlns="http://www.w3.org/2000/svg" xmlns:xlink="http://www.w3.org/1999/xlink" x="0px" y="0px"
	 viewBox="0 0 511.999 511.999" style="enable-background:new 0 0 511.999 511.999;" xml:space="preserve">
<path style="fill:#FADA6D;" d="M305.232,62.913L87.884,142.021l2.234,36.628c0.774,12.696,3.377,25.214,7.728,37.167l69.202,190.13
	c4.379,12.033,10.484,23.365,18.122,33.642l21.598,29.061l217.348-79.108l-2.234-36.628c-0.774-12.696-3.377-25.214-7.728-37.167
	l-69.118-189.9c-4.35-11.953-10.403-23.215-17.971-33.439L305.232,62.913z"/>
<path style="fill:#F2C55A;" d="M384.996,403.78c-158.155-17.379-226.638-173.61-242.251-240.93
	c-1.95-8.409,2.679-16.944,10.791-19.897l166.172-60.482l-14.477-19.558L87.884,142.021l2.235,36.628
	c0.774,12.696,3.377,25.214,7.728,37.167l69.202,190.13c4.379,12.033,10.484,23.365,18.122,33.642l21.598,29.061L384.996,403.78
	L384.996,403.78z"/>
<path style="fill:#F4BC48;" d="M421.88,352.914c-0.774-12.696-3.377-25.214-7.727-37.167l-36.945-101.506
	c-39.733,38.492-120.341,52.055-134.79,104.727c-17.048,62.145,27.635,85.681,63.943,113.432l117.754-42.859L421.88,352.914z"/>
<path style="fill:#EBAC40;" d="M239.347,334.222c-6.314,50.98,33.84,72.824,67.013,98.179l78.635-28.621l0,0
	C323.68,397.042,275.851,369.428,239.347,334.222z"/>
<path style="fill:#FFFFFF;" d="M330.586,313.126l-101.292,36.867c-7.722,2.81-16.26-1.171-19.07-8.892l-10.964-30.123
	c-2.81-7.722,1.171-16.26,8.893-19.07l101.292-36.867c7.722-2.811,16.26,1.171,19.07,8.893l10.964,30.123
	C342.289,301.777,338.308,310.315,330.586,313.126z"/>
<g>
	<path style="fill:#E8E9EA;" d="M204.318,293.985c-5.111,3.829-7.355,10.682-5.058,16.993l10.964,30.123
		c2.811,7.722,11.348,11.703,19.07,8.892l19.475-7.088C231.757,327.92,217.002,311.233,204.318,293.985z"/>
	<path style="fill:#E8E9EA;" d="M147.733,110.037L147.733,110.037c-21.064,7.667-44.354-3.194-52.021-24.258l-8.666-23.81
		C79.38,40.907,90.24,17.616,111.304,9.95l0,0c21.064-7.667,44.354,3.194,52.021,24.258l8.666,23.809
		C179.657,79.08,168.797,102.371,147.733,110.037z"/>
</g>
<g>
	<circle style="fill:#C7C9CC;" cx="125.19" cy="48.09" r="14.504"/>
	<path style="fill:#C7C9CC;" d="M91.9,24.878c-7.287,10.469-9.548,24.195-4.854,37.092l8.666,23.81
		c7.667,21.064,30.957,31.924,52.021,24.257l0,0c7.973-2.902,14.48-8.045,19.078-14.456C124.403,98.09,98.599,57.459,91.9,24.878z"
		/>
	<path style="fill:#C7C9CC;" d="M444.65,417.974L209.312,503.63c-7.371,2.683-15.522-1.118-18.205-8.489l-1.824-5.012
		c-2.683-7.371,1.118-15.522,8.489-18.205l235.339-85.656c7.371-2.683,15.522,1.118,18.205,8.489l1.824,5.012
		C455.823,407.14,452.022,415.291,444.65,417.974z"/>
	<path style="fill:#C7C9CC;" d="M67.348,113.589l235.339-85.656c7.371-2.683,15.522,1.118,18.205,8.489l1.824,5.012
		c2.683,7.371-1.118,15.522-8.489,18.205L78.888,145.295c-7.371,2.683-15.522-1.118-18.205-8.489l-1.824-5.012
		C56.176,124.422,59.977,116.272,67.348,113.589z"/>
</g>
<g>
	
		<ellipse transform="matrix(-0.342 -0.9397 0.9397 -0.342 23.0575 470.3938)" style="fill:#EA7786;" cx="176.219" cy="227.124" rx="18.14" ry="22.784"/>
	
		<ellipse transform="matrix(0.342 0.9397 -0.9397 0.342 366.0493 -152.9986)" style="fill:#EA7786;" cx="292.274" cy="184.881" rx="18.14" ry="22.784"/>
</g>
<path d="M348.802,369.688c-3.892,1.417-5.899,5.721-4.482,9.613c1.108,3.046,3.984,4.937,7.049,4.937
	c0.852,0,1.718-0.146,2.565-0.454l26.825-9.764c3.892-1.417,5.899-5.721,4.482-9.613c-1.417-3.893-5.721-5.901-9.613-4.483
	L348.802,369.688z M460.188,397.204l-1.824-5.013c-4.041-11.098-16.25-16.901-27.374-13.121l-1.624-26.613
	c-0.819-13.424-3.566-26.639-8.166-39.276l-36.99-101.628c-0.004-0.011-0.008-0.022-0.012-0.032l-32.117-88.239
	c-4.6-12.638-10.989-24.526-18.99-35.336l-15.863-21.431c10.956-4.256,16.574-16.549,12.535-27.646l-1.824-5.012
	c-1.982-5.448-5.969-9.797-11.223-12.247c-5.255-2.451-11.146-2.707-16.596-0.725l-18.908,6.882
	c-3.892,1.417-5.899,5.721-4.483,9.613s5.72,5.899,9.613,4.483l18.908-6.882c1.682-0.613,3.502-0.534,5.126,0.224
	c1.623,0.757,2.854,2.1,3.466,3.782l1.824,5.012c1.264,3.474-0.533,7.328-4.007,8.592l-8.883,3.233
	c-0.014,0.004-0.027,0.01-0.04,0.015l-217.5,79.163c-0.008,0.003-0.017,0.006-0.025,0.009l-8.89,3.236
	c-3.469,1.266-7.327-0.533-8.592-4.007l-1.824-5.011c-1.265-3.474,0.533-7.328,4.007-8.592l182.554-66.444
	c3.892-1.417,5.899-5.721,4.482-9.613c-1.416-3.893-5.72-5.9-9.613-4.483l-66.038,24.036c-0.482-2.938-1.226-5.839-2.26-8.681
	l-8.665-23.81c-9.069-24.916-36.719-37.806-61.635-28.74c-24.915,9.069-37.809,36.717-28.74,61.633l8.666,23.81
	c1.035,2.842,2.33,5.542,3.85,8.103l-27.731,10.093c-11.245,4.093-17.064,16.572-12.972,27.818l1.824,5.012
	c3.205,8.804,11.549,14.282,20.417,14.282c2.31,0,4.656-0.388,6.956-1.17l1.624,26.622c0.819,13.425,3.566,26.639,8.166,39.276
	L160,408.511c4.63,12.722,11.072,24.683,19.149,35.551l15.601,20.993c-10.944,4.263-16.553,16.547-12.516,27.639l1.824,5.012
	c1.982,5.448,5.968,9.797,11.223,12.248c2.918,1.361,6.033,2.045,9.159,2.045c2.503,0,5.014-0.439,7.436-1.32l235.339-85.656
	C458.461,420.928,464.281,408.45,460.188,397.204z M113.869,16.998c17.142-6.24,36.168,2.631,42.408,19.774l8.665,23.81
	c1.043,2.867,1.672,5.817,1.897,8.813l-59.868,21.79c-1.754-2.44-3.169-5.104-4.212-7.97l-8.666-23.81
	C87.855,42.261,96.726,23.237,113.869,16.998z M191.189,435.115c-7.209-9.701-12.96-20.377-17.093-31.733l-69.202-190.131
	c-4.106-11.28-6.559-23.076-7.289-35.059l-1.894-31.039l206.824-75.278l18.5,24.994c7.143,9.649,12.846,20.262,16.951,31.542
	l30.46,83.687c-14.332,12.566-33.858,22.737-52.801,32.591c-1.388,0.722-2.776,1.445-4.163,2.168
	c-1.553,0.217-3.095,0.586-4.603,1.135l-101.291,36.867c-11.596,4.221-17.596,17.088-13.375,28.683l10.964,30.122
	c2.044,5.617,6.153,10.102,11.57,12.629c3.009,1.403,6.221,2.108,9.444,2.108c2.581,0,5.17-0.453,7.668-1.361l0.264-0.096
	c2.48,16.091,9.986,30.302,23.195,44.066c1.473,1.535,3.441,2.307,5.412,2.307c1.867,0,3.738-0.693,5.192-2.088
	c2.988-2.868,3.086-7.616,0.218-10.605c-11.74-12.235-18.036-24.731-19.57-38.939l86.581-31.513
	c11.596-4.221,17.596-17.088,13.375-28.683l-10.964-30.123c-1.058-2.905-2.677-5.499-4.734-7.684
	c15.237-8.01,30.39-16.451,43.073-26.598l33.204,91.226c4.106,11.281,6.559,23.076,7.289,35.059l1.894,31.039l-108.673,39.554
	c-2.995-2.245-6.013-4.476-8.971-6.644c-2.251-1.649-4.504-3.301-6.744-4.964c-3.327-2.47-8.023-1.774-10.492,1.551
	c-2.47,3.326-1.775,8.023,1.551,10.493c2.265,1.681,4.542,3.351,6.816,5.019c0.314,0.23,0.632,0.464,0.947,0.694l-81.268,29.579
	L191.189,435.115z M321.467,266.498l10.964,30.123c0.674,1.852,0.587,3.855-0.246,5.642s-2.311,3.142-4.164,3.815l-101.292,36.867
	c-1.853,0.674-3.856,0.585-5.642-0.246c-1.786-0.833-3.141-2.311-3.814-4.164l-10.964-30.124c-0.674-1.852-0.587-3.855,0.246-5.642
	c0.833-1.786,2.312-3.141,4.164-3.815l101.291-36.867c0.83-0.302,1.68-0.446,2.517-0.446
	C317.541,261.642,320.378,263.505,321.467,266.498z M442.085,410.926l-235.339,85.656c-1.682,0.613-3.502,0.534-5.126-0.224
	c-1.623-0.757-2.854-2.1-3.466-3.783l-1.824-5.012c-1.265-3.474,0.533-7.328,4.007-8.592l108.504-39.492
	c0.002-0.001,0.005-0.002,0.007-0.003l117.9-42.912c0.015-0.005,0.029-0.01,0.044-0.016l8.884-3.233
	c0.754-0.274,1.525-0.405,2.285-0.405c2.739,0,5.317,1.692,6.307,4.411l1.824,5.012
	C447.357,405.808,445.559,409.662,442.085,410.926z M125.208,70.094c2.493,0,5.028-0.427,7.504-1.328
	c5.522-2.01,9.933-6.051,12.416-11.378c2.484-5.327,2.744-11.302,0.734-16.825c-2.01-5.523-6.051-9.933-11.378-12.417
	c-5.327-2.484-11.303-2.744-16.825-0.734c-11.4,4.15-17.301,16.801-13.151,28.203C107.758,64.541,116.217,70.095,125.208,70.094z
	 M122.79,41.507c0.781-0.285,1.592-0.426,2.399-0.426c1.009,0,2.015,0.221,2.956,0.66c1.695,0.79,2.981,2.194,3.621,3.952l0,0
	c0.641,1.758,0.558,3.66-0.233,5.355c-0.79,1.696-2.194,2.982-3.952,3.622c-3.629,1.321-7.656-0.557-8.978-4.186
	C117.283,46.856,119.161,42.828,122.79,41.507z M186.801,195.446c-1.416-3.892-5.72-5.9-9.613-4.482
	c-3.893,1.417-5.899,5.721-4.482,9.613l2.752,7.561c1.108,3.045,3.984,4.937,7.049,4.937c0.852,0,1.718-0.146,2.564-0.454
	c3.893-1.417,5.899-5.721,4.482-9.613L186.801,195.446z M212.537,200.264c3.668,2.028,7.745,3.057,11.84,3.057
	c2.818,0,5.646-0.488,8.353-1.473c6.639-2.417,11.905-7.589,14.449-14.192c1.489-3.865-0.437-8.206-4.302-9.695
	c-3.866-1.491-8.205,0.437-9.694,4.302c-0.985,2.556-3.02,4.557-5.584,5.49c-2.563,0.933-5.407,0.709-7.806-0.616
	c-3.622-2.003-8.188-0.689-10.192,2.936C207.598,193.697,208.912,198.26,212.537,200.264z M316.462,365.943
	c0.851,0,1.718-0.146,2.564-0.454l51.769-18.842c3.892-1.417,5.899-5.721,4.482-9.613c-1.416-3.892-5.718-5.903-9.613-4.483
	l-51.768,18.842c-3.892,1.417-5.899,5.721-4.482,9.613C310.522,364.052,313.398,365.943,316.462,365.943z M294.078,285.542
	l-54.548,19.854c-3.892,1.417-5.899,5.721-4.482,9.613c1.108,3.046,3.984,4.937,7.049,4.937c0.852,0,1.718-0.146,2.564-0.454
	l54.548-19.854c3.892-1.417,5.899-5.721,4.482-9.613C302.275,286.132,297.971,284.125,294.078,285.542z M266.549,174.981
	c1.108,3.046,3.984,4.938,7.049,4.938c0.851,0,1.717-0.146,2.564-0.454c3.893-1.417,5.899-5.72,4.483-9.612l-2.751-7.56
	c-1.416-3.892-5.716-5.901-9.612-4.483c-3.893,1.417-5.899,5.72-4.483,9.612L266.549,174.981z"/>
<g>
</g>
<g>
</g>
<g>
</g>
<g>
</g>
<g>
</g>
<g>
</g>
<g>
</g>
<g>
</g>
<g>
</g>
<g>
</g>
<g>
</g>
<g>
</g>
<g>
</g>
<g>
</g>
<g>
</g>
</svg>
