<?xml version="1.0" encoding="iso-8859-1"?>
<!-- Generator: Adobe Illustrator 19.0.0, SVG Export Plug-In . SVG Version: 6.00 Build 0)  -->
<svg version="1.1" id="Capa_1" xmlns="http://www.w3.org/2000/svg" xmlns:xlink="http://www.w3.org/1999/xlink" x="0px" y="0px"
	 viewBox="0 0 512 512" style="enable-background:new 0 0 512 512;" xml:space="preserve">
<circle style="fill:#34ABE0;" cx="256" cy="255.999" r="255.999"/>
<circle style="fill:#72BBE8;" cx="256" cy="213.295" r="213.295"/>
<g>
	<path style="fill:#E8E8E8;" d="M187.506,80.581c-1.506,0.211-3.094-0.152-4.404-1.139l-68.519-51.642
		c-2.623-1.976-3.146-5.703-1.169-8.325c1.974-2.621,5.704-3.145,8.324-1.169l68.519,51.642c2.623,1.976,3.146,5.703,1.169,8.325
		C190.439,79.583,189.013,80.37,187.506,80.581z"/>
	<path style="fill:#E8E8E8;" d="M187.506,80.581c-1.506,0.211-3.094-0.152-4.404-1.139c-2.623-1.976-3.146-5.703-1.169-8.325
		l51.641-68.52c1.974-2.621,5.704-3.145,8.324-1.169c2.623,1.976,3.146,5.703,1.169,8.325l-51.64,68.52
		C190.439,79.583,189.013,80.37,187.506,80.581z"/>
</g>
<circle style="fill:#494B5B;" cx="186.682" cy="74.7" r="32.099"/>
<path style="fill:#FF525D;" d="M300.886,46.646L69.166,79.196c-7.906,1.111-13.413,8.419-12.304,16.324l24.343,173.293
	c1.111,7.906,8.419,13.413,16.324,12.304l231.719-32.55c7.906-1.111,13.413-8.419,12.304-16.324L317.211,58.95
	C316.1,51.044,308.791,45.536,300.886,46.646z"/>
<path style="fill:#EF4152;" d="M191.626,247.935c-2.59,0.364-5.178,0.707-7.773,1.031c-19.136,2.384-38.677,3.714-58.082,3.951
	c-12.061,0.13-22.561-7.432-26.143-18.815c-11.256-35.734-16.468-72.841-15.492-110.284c0.305-11.943,8.322-22.108,19.947-25.288
	c18.682-5.12,37.833-9.231,56.919-12.216c2.582-0.403,5.165-0.786,7.75-1.149c21.695-3.048,43.866-4.722,65.898-4.975
	c12.047-0.146,22.554,7.416,26.139,18.816c11.253,35.721,16.464,72.827,15.491,110.281c-0.307,11.927-8.318,22.088-19.936,25.283
	C235.061,240.397,213.291,244.891,191.626,247.935z"/>
<path style="fill:#5C5E70;" d="M267.959,209.073c-0.213,8.23-5.884,15.292-13.824,17.477c-23.526,6.438-47.306,11.16-71.315,14.159
	c-18.901,2.355-37.964,3.652-57.151,3.886c-8.235,0.088-15.633-5.14-18.104-12.991c-11.03-35.019-16.066-70.878-15.11-107.569
	c0.211-8.241,5.882-15.305,13.824-17.477c18.507-5.073,37.19-9.078,56.009-12.022c23.906-3.73,48.066-5.744,72.457-6.025
	c8.234-0.1,15.631,5.127,18.104,12.991C263.876,136.511,268.914,172.371,267.959,209.073z"/>
<g>
	<path style="fill:#494B5B;" d="M252.654,211.224c-0.213,8.23-5.884,15.292-13.824,17.477c-18.509,5.06-37.191,9.066-56.01,12.009
		c-18.901,2.355-37.964,3.652-57.151,3.886c-8.235,0.088-15.633-5.14-18.104-12.991c-11.03-35.019-16.066-70.878-15.11-107.569
		c0.211-8.241,5.882-15.305,13.824-17.477c18.507-5.073,37.19-9.078,56.009-12.022c18.901-2.355,37.963-3.652,57.153-3.874
		c8.234-0.1,15.631,5.127,18.104,12.991C248.572,138.661,253.609,174.521,252.654,211.224z"/>
	<circle style="fill:#494B5B;" cx="297.597" cy="139.034" r="17.239"/>
	<circle style="fill:#494B5B;" cx="291.14" cy="93.121" r="17.239"/>
	<path style="fill:#494B5B;" d="M365.743,251.597l-67.516-45.258c-8.431-5.652-10.684-17.067-5.033-25.499L377.742,54.71
		c5.652-8.431,17.067-10.684,25.499-5.033l67.516,45.258c8.431,5.652,10.684,17.067,5.033,25.499l-84.548,126.131
		C385.59,254.995,374.174,257.249,365.743,251.597z"/>
</g>
<g>
	
		<rect x="337.004" y="92.26" transform="matrix(-0.8306 -0.5568 0.5568 -0.8306 619.9497 489.8408)" style="fill:#5C5E70;" width="94.936" height="116.752"/>
	<circle style="fill:#5C5E70;" cx="341.358" cy="214.977" r="12.664"/>
	<path style="fill:#5C5E70;" d="M435.769,100.413l-24.302-16.29c-3.116-2.089-3.949-6.307-1.86-9.423l0,0
		c2.089-3.116,6.307-3.949,9.423-1.86l24.302,16.29c3.116,2.089,3.949,6.307,1.86,9.423l0,0
		C443.103,101.669,438.885,102.502,435.769,100.413z"/>
</g>
<path style="fill:#41B787;" d="M472.65,191.708l-1.149,12.737l-2.581,28.526l-17,187.81C404.961,476.557,334.619,512,256.001,512
	c-42.224,0-82.066-10.219-117.175-28.327c-30.26-15.611-57.01-37.073-78.743-62.892L40.491,204.456l-1.149-12.748H472.65z"/>
<g>
	<path style="fill:#4BC999;" d="M468.919,232.971l-17,187.81C404.961,476.557,334.619,512,256.001,512
		c-42.224,0-82.066-10.219-117.175-28.327l-17.868-197.517c-2.591-28.567,19.905-53.185,48.588-53.185H468.919z"/>
	<path style="fill:#4BC999;" d="M491.585,211.134c-471.225,0,0.05,0-471.175,0c-5.58,0-10.104-4.523-10.104-10.104v-31.179
		c0-5.58,4.523-10.104,10.104-10.104h471.175c5.58,0,10.104,4.523,10.104,10.104v31.179
		C501.688,206.61,497.165,211.134,491.585,211.134z"/>
</g>
<path style="fill:#FFFFFF;" d="M249.681,437.535v44.099c-20.666,0-34.07-0.112-42.711-2.598c-4.982-1.433-9.2-4.769-11.833-9.234
	l0,0c0-0.002,0-0.004-0.002-0.006c-1.649-4.563-4.26-15.054-0.267-22.934c2.644-5.222,9.411-5.375,11.453-9.328h43.361V437.535z"/>
<path style="fill:#494B5B;" d="M213.409,384.022l22.001,44.001l-18.731-10.106c0,0-3.452,6.243-10.36,19.621
	c-2.042,3.952-4.384,8.528-7.028,13.752c-3.992,7.881-5.805,13.948-4.157,18.51l-23.217-39.367
	c-2.303-3.909-2.464-8.723-0.42-12.775l9.605-19.065l-17.341-10.108L213.409,384.022z"/>
<path style="fill:#FFFFFF;" d="M290.335,401.798l38.191-22.049c10.333,17.897,16.938,29.561,19.106,38.287
	c1.25,5.031,0.47,10.352-2.079,14.865l0,0c-0.002,0.001-0.003,0.002-0.004,0.005c-3.127,3.709-10.908,11.216-19.729,11.7
	c-5.845,0.322-9.36-5.463-13.804-5.255L290.335,401.798z"/>
<path style="fill:#494B5B;" d="M262.127,459.967l27.105-41.054l0.612,21.274c0,0,7.134-0.132,22.172-0.838
	c4.444-0.208,9.579-0.467,15.424-0.789c8.821-0.484,14.982-1.947,18.109-5.656l-22.486,39.79c-2.233,3.949-6.323,6.495-10.853,6.751
	l-21.314,1.214l-0.084,20.072L262.127,459.967z"/>
<path style="fill:#FFFFFF;" d="M238.042,385.285l-38.191-22.049c10.333-17.897,17.132-29.449,23.605-35.69
	c3.731-3.598,8.73-5.583,13.914-5.631l0,0c0.002,0.001,0.003,0.002,0.006,0.001c4.776,0.854,15.167,3.838,19.996,11.236
	c3.201,4.902-0.05,10.838,2.351,14.582L238.042,385.285z"/>
<path style="fill:#494B5B;" d="M302.523,380.63l-49.106-2.947l18.117-11.168c0,0-3.681-6.112-11.812-18.783
	c-2.402-3.744-5.194-8.061-8.395-12.963c-4.828-7.398-9.176-12.002-13.952-12.855l45.702-0.422
	c4.537-0.041,8.787,2.228,11.273,6.024l11.709,17.851l17.425-9.963L302.523,380.63z"/>
<g>
	<path style="fill:#FFFFFF;" d="M115.16,259.373h11.7c2.34,0,3.665,2.262,3.665,4.758c0,2.105-1.092,4.602-3.665,4.602h-11.7v13.26
		h20.903c2.34,0,3.667,2.496,3.667,5.381c0,2.496-1.092,5.226-3.667,5.226h-27.767c-2.652,0-5.303-1.248-5.303-3.744v-49.528
		c0-2.496,2.651-3.744,5.303-3.744h27.767c2.575,0,3.667,2.73,3.667,5.226c0,2.886-1.327,5.381-3.667,5.381H115.16
		C115.16,246.191,115.16,259.373,115.16,259.373z"/>
	<path style="fill:#FFFFFF;" d="M145.66,268.889h20.279c1.871,0,3.744,2.184,3.744,4.991c0,2.963-1.872,4.914-3.744,4.914H145.66
		c-2.184,0-3.665-1.95-3.665-4.914C141.995,271.073,143.476,268.889,145.66,268.889z"/>
	<path style="fill:#FFFFFF;" d="M225.453,289.013c-0.936,2.729-4.446,4.055-8.033,4.055c-3.509,0-7.254-1.326-7.877-4.055
		l-4.056-18.485l-4.055,18.485c-0.625,2.729-4.369,4.055-7.879,4.055c-3.588,0-7.175-1.326-8.033-4.055l-15.521-47.578
		c-0.077-0.234-0.156-0.624-0.156-1.014c0-2.652,4.369-4.836,7.877-4.836c1.872,0,3.432,0.624,3.9,2.262l11.856,40.012l6.161-26.363
		c0.468-2.107,3.198-3.198,5.85-3.198c2.652,0,5.381,1.092,5.85,3.198l6.162,26.363l11.855-40.012
		c0.468-1.638,2.028-2.262,3.9-2.262c3.51,0,7.877,2.184,7.877,4.836c0,0.39-0.077,0.779-0.156,1.014L225.453,289.013z"/>
	<path style="fill:#FFFFFF;" d="M238.565,287.609c0-0.234,0.077-0.545,0.156-0.858l14.507-47.578
		c0.858-2.73,4.369-4.056,7.956-4.056c3.587,0,7.097,1.326,7.955,4.056l14.586,47.578c0.077,0.312,0.156,0.624,0.156,0.858
		c0,2.886-4.446,4.991-7.8,4.991c-1.95,0-3.509-0.624-3.978-2.262l-2.652-9.75h-16.457l-2.652,9.75
		c-0.468,1.637-2.028,2.262-3.979,2.262C243.011,292.601,238.565,290.495,238.565,287.609z M266.878,271.23l-5.694-20.903
		l-5.694,20.903H266.878z"/>
	<path style="fill:#FFFFFF;" d="M311.808,277.313c0-9.438-24.725-7.799-24.725-26.051c0-11.7,10.218-16.146,19.967-16.146
		c4.134,0,15.521,0.781,15.521,6.864c0,2.107-1.404,6.396-4.836,6.396c-2.809,0-4.289-2.963-10.686-2.963
		c-5.538,0-7.8,2.262-7.8,4.68c0,7.8,24.725,6.317,24.725,25.973c0,11.232-8.19,17.316-19.499,17.316
		c-10.218,0-18.798-4.991-18.798-10.14c0-2.652,2.34-6.551,5.304-6.551c3.667,0,6.006,5.771,13.259,5.771
		C307.83,282.461,311.808,281.057,311.808,277.313z"/>
	<path style="fill:#FFFFFF;" d="M363.756,235.584c2.575,0,3.667,2.809,3.667,5.382c0,2.963-1.327,5.538-3.667,5.538h-10.763v42.353
		c0,2.496-3.042,3.744-6.083,3.744c-3.042,0-6.084-1.248-6.084-3.744v-42.353h-10.763c-2.34,0-3.665-2.574-3.665-5.538
		c0-2.574,1.092-5.382,3.665-5.382H363.756z"/>
	<path style="fill:#FFFFFF;" d="M384.429,259.373h11.7c2.34,0,3.665,2.262,3.665,4.758c0,2.105-1.092,4.602-3.665,4.602h-11.7v13.26
		h20.903c2.34,0,3.667,2.496,3.667,5.381c0,2.496-1.092,5.226-3.667,5.226h-27.767c-2.652,0-5.303-1.248-5.303-3.744v-49.528
		c0-2.496,2.651-3.744,5.303-3.744h27.767c2.575,0,3.667,2.73,3.667,5.226c0,2.886-1.327,5.381-3.667,5.381h-20.903V259.373z"/>
</g>
<g>
</g>
<g>
</g>
<g>
</g>
<g>
</g>
<g>
</g>
<g>
</g>
<g>
</g>
<g>
</g>
<g>
</g>
<g>
</g>
<g>
</g>
<g>
</g>
<g>
</g>
<g>
</g>
<g>
</g>
</svg>
