<?xml version="1.0" encoding="iso-8859-1"?>
<!-- Generator: Adobe Illustrator 19.0.0, SVG Export Plug-In . SVG Version: 6.00 Build 0)  -->
<svg version="1.1" id="Capa_1" xmlns="http://www.w3.org/2000/svg" xmlns:xlink="http://www.w3.org/1999/xlink" x="0px" y="0px"
	 viewBox="0 0 511.998 511.998" style="enable-background:new 0 0 511.998 511.998;" xml:space="preserve">
<path style="fill:#E0F7FF;" d="M368.193,348.192l-21.635-59.431c-5.564-15.284-9.474-31.119-11.665-47.236l0,0
	c-1.232-9.065-3.435-17.972-6.569-26.567l-6.117-16.773c-7.836-21.487-26.995-36.815-49.678-39.744l0,0
	c-17.207-2.222-31.738-13.854-37.671-30.158l-28.22-77.534l-67.732,24.652l28.22,77.535c5.934,16.303,2.28,34.555-9.473,47.317l0,0
	c-15.493,16.824-20.318,40.881-12.508,62.377l6.096,16.78c3.124,8.599,7.162,16.838,12.045,24.574l0,0
	c8.681,13.754,15.864,28.399,21.426,43.683l21.628,59.434c6.159,16.924,10.574,34.432,13.176,52.253v0.001
	c1.272,8.709,3.44,17.263,6.47,25.526l0,0c5.678,15.484,22.818,23.452,38.316,17.811l120.935-44.017
	c15.498-5.641,23.507-22.761,17.903-38.273l0,0c-2.99-8.278-6.828-16.225-11.452-23.714l0,0
	C382.226,381.366,374.354,365.115,368.193,348.192z"/>
<path style="fill:#BDECFF;" d="M404.803,433.201c-187.114,48.748-193.442-108.818-194.302-169.813
	c-0.394-27.932-7.032-74.212-42.986-172.993c19.592-7.131,36.13-13.15,47.288-17.211l-8.166-22.434l-67.732,24.652l28.22,77.535
	c5.934,16.303,2.28,34.555-9.473,47.317l0,0c-15.493,16.824-20.317,40.881-12.509,62.377l6.096,16.78
	c3.124,8.599,7.162,16.838,12.045,24.574l0,0c8.681,13.754,15.864,28.399,21.426,43.683l21.628,59.434
	c6.159,16.924,10.574,34.432,13.176,52.253v0.001c1.272,8.709,3.44,17.263,6.47,25.526l0,0
	c5.678,15.484,22.818,23.452,38.316,17.811l120.935-44.017C396.504,454.576,403.805,444.407,404.803,433.201z"/>
<path style="fill:#C0E5FF;" d="M225.986,484.882L225.986,484.882c5.678,15.485,22.818,23.452,38.316,17.811l120.935-44.017
	c15.498-5.641,23.507-22.761,17.903-38.273c-1.485-4.112-3.181-8.142-5.077-12.075l-175.949,64.04
	C223.19,476.601,224.481,480.778,225.986,484.882z"/>
<path style="fill:#B5E0FF;" d="M404.803,433.201L404.803,433.201c-38.139,9.936-68.765,11.299-93.367,6.657l-89.323,32.511
	c1.076,4.231,2.367,8.408,3.872,12.513l0,0c5.678,15.484,22.818,23.452,38.316,17.811l120.935-44.017
	C396.504,454.576,403.805,444.407,404.803,433.201z"/>
<path style="fill:#C0E5FF;" d="M214.151,48.015l-82.757,30.121c-7.808,2.842-16.442-1.184-19.283-8.992l-4.121-11.322
	c-2.842-7.808,1.184-16.441,8.992-19.283l82.757-30.121c7.808-2.842,16.442,1.184,19.283,8.992l4.121,11.322
	C225.984,36.539,221.959,45.173,214.151,48.015z"/>
<path style="fill:#FFFFFF;" d="M296.34,241.925c-4.122,0-7.475-3.329-7.499-7.456c-0.055-9.486-3.651-17.626-10.689-24.191
	c-9.328-8.702-22.073-12.037-25.335-11.81c-4.139,0.262-7.698-2.874-7.961-7.008s2.874-7.698,7.008-7.961
	c7.387-0.474,24.105,4.23,36.521,15.812c10.033,9.36,15.378,21.488,15.456,35.072c0.023,4.142-3.315,7.519-7.457,7.543
	C296.37,241.925,296.355,241.925,296.34,241.925z"/>
<g>
	
		<ellipse transform="matrix(-0.342 -0.9397 0.9397 -0.342 -44.3673 724.9912)" style="fill:#EA7786;" cx="231.644" cy="378.029" rx="15.393" ry="19.33"/>
	
		<ellipse transform="matrix(0.342 0.9397 -0.9397 0.342 538.747 -85.0535)" style="fill:#EA7786;" cx="330.107" cy="342.17" rx="15.393" ry="19.33"/>
</g>
<path style="fill:#B5E0FF;" d="M186.44,58.1c-24.765-1.655-31.711-20.266-26.203-35.306l-43.256,15.744
	c-7.808,2.842-11.834,11.475-8.992,19.284l4.121,11.322c2.842,7.808,11.475,11.834,19.283,8.992L186.44,58.1z"/>
<path d="M236.988,367.238c0.852,0,1.718-0.146,2.564-0.454c3.893-1.417,5.899-5.721,4.483-9.613l-2.335-6.414
	c-1.417-3.893-5.722-5.899-9.613-4.483c-3.893,1.417-5.899,5.721-4.483,9.613l2.335,6.414
	C231.048,365.347,233.924,367.238,236.988,367.238z M410.194,417.855c-1.565-4.33-3.356-8.586-5.357-12.74
	c-0.014-0.031-0.028-0.062-0.043-0.092c-2.03-4.206-4.276-8.307-6.724-12.273c-9.174-14.857-16.854-30.712-22.829-47.123
	l-21.635-59.431c-5.372-14.756-9.167-30.125-11.281-45.681c-1.303-9.582-3.643-19.045-6.955-28.126l-6.116-16.773
	c-8.831-24.216-30.198-41.311-55.764-44.612c-14.485-1.87-26.588-11.559-31.584-25.284l-25.655-70.487l0.464-0.169l0,0
	c11.681-4.252,17.726-17.215,13.475-28.896l-4.121-11.322c-2.06-5.659-6.2-10.177-11.658-12.722
	c-5.457-2.545-11.581-2.812-17.238-0.752l-82.757,30.121c-11.682,4.252-17.727,17.214-13.475,28.896l4.121,11.322
	c2.06,5.659,6.2,10.177,11.658,12.722c3.031,1.414,6.267,2.124,9.515,2.124c2.6,0,5.208-0.456,7.724-1.372l0.465-0.169l6.086,16.72
	c1.109,3.046,3.985,4.937,7.048,4.937c0.852,0,1.718-0.146,2.564-0.454c3.893-1.417,5.9-5.721,4.483-9.613l-6.086-16.72
	l53.637-19.522l25.655,70.486c6.921,19.017,23.688,32.439,43.758,35.031c19.985,2.581,36.689,15.944,43.593,34.875l6.116,16.773
	c2.945,8.075,5.025,16.488,6.184,25.007c2.258,16.615,6.313,33.03,12.049,48.791l21.635,59.431
	c6.323,17.37,14.452,34.149,24.161,49.873c0.73,1.181,1.431,2.381,2.12,3.589l-19.613,7.138c-3.892,1.417-5.899,5.721-4.482,9.613
	c1.108,3.046,3.984,4.937,7.049,4.937c0.85,0,1.718-0.146,2.564-0.454l21.123-7.688c0.711,1.715,1.389,3.443,2.019,5.188
	c4.189,11.595-1.829,24.46-13.415,28.677l-120.935,44.017c-11.585,4.217-24.464-1.77-28.709-13.346
	c-0.638-1.741-1.23-3.5-1.788-5.271l108.659-39.548c3.892-1.417,5.899-5.721,4.482-9.613c-1.416-3.893-5.72-5.9-9.613-4.483
	L227.62,462.383c-0.249-1.368-0.482-2.738-0.683-4.112c-2.671-18.287-7.23-36.366-13.55-53.734l-21.628-59.434
	c-5.735-15.759-13.181-30.94-22.132-45.121c-4.588-7.27-8.403-15.052-11.338-23.132l-6.096-16.781
	c-6.88-18.939-2.674-39.913,10.976-54.736c13.709-14.886,17.925-35.947,11.004-54.962l-7.373-20.256
	c-1.417-3.893-5.721-5.9-9.613-4.483c-3.893,1.417-5.899,5.721-4.483,9.613l7.373,20.257c4.996,13.725,1.953,28.926-7.942,39.671
	c-17.461,18.962-22.842,45.791-14.04,70.019l6.096,16.781c3.301,9.087,7.591,17.841,12.752,26.017
	c8.38,13.277,15.352,27.491,20.721,42.245l21.628,59.434c5.972,16.411,10.279,33.493,12.803,50.773
	c0.674,4.616,1.591,9.205,2.741,13.735c0.005,0.022,0.012,0.044,0.018,0.066c1.139,4.476,2.504,8.895,4.092,13.223
	c5.546,15.124,19.92,24.532,35.179,24.532c4.236,0,8.541-0.726,12.744-2.255l120.935-44.017
	C407.141,458.685,417.186,437.212,410.194,417.855z M211.585,40.968L211.585,40.968l-82.757,30.12
	c-1.894,0.69-3.943,0.6-5.769-0.252c-1.827-0.852-3.212-2.364-3.901-4.258l-4.121-11.322c-0.689-1.894-0.6-3.943,0.252-5.77
	c0.852-1.826,2.364-3.212,4.257-3.901l82.758-30.122c0.842-0.306,1.715-0.459,2.585-0.459c1.086,0,2.169,0.238,3.184,0.711
	c1.826,0.852,3.212,2.364,3.901,4.258l4.121,11.322C217.518,35.206,215.495,39.544,211.585,40.968z M314.271,339.11
	c0.852,0,1.718-0.146,2.564-0.455c3.893-1.417,5.899-5.721,4.482-9.613l-2.335-6.414c-1.418-3.893-5.72-5.901-9.613-4.482
	c-3.893,1.417-5.899,5.721-4.482,9.613l2.335,6.414C308.332,337.219,311.207,339.11,314.271,339.11z M272.512,358.964
	c2.522,0,5.052-0.436,7.475-1.318c5.941-2.163,10.655-6.792,12.932-12.701c1.488-3.865-0.438-8.206-4.303-9.695
	c-3.867-1.49-8.206,0.437-9.695,4.302c-0.717,1.861-2.198,3.318-4.065,3.998c-1.866,0.679-3.937,0.515-5.684-0.45
	c-3.625-2.005-8.189-0.689-10.192,2.936s-0.688,8.188,2.937,10.192C265.2,358.043,268.847,358.964,272.512,358.964z"/>
<g>
</g>
<g>
</g>
<g>
</g>
<g>
</g>
<g>
</g>
<g>
</g>
<g>
</g>
<g>
</g>
<g>
</g>
<g>
</g>
<g>
</g>
<g>
</g>
<g>
</g>
<g>
</g>
<g>
</g>
</svg>
