<?xml version="1.0" encoding="iso-8859-1"?>
<!-- Generator: Adobe Illustrator 19.0.0, SVG Export Plug-In . SVG Version: 6.00 Build 0)  -->
<svg version="1.1" id="Capa_1" xmlns="http://www.w3.org/2000/svg" xmlns:xlink="http://www.w3.org/1999/xlink" x="0px" y="0px"
	 viewBox="0 0 512 512" style="enable-background:new 0 0 512 512;" xml:space="preserve">
<circle style="fill:#FF525D;" cx="256" cy="256.884" r="255.114"/>
<circle style="fill:#FF6E7C;" cx="256" cy="214.337" r="212.557"/>
<path style="fill:#E8E8E8;" d="M190.503,146.615l49.044,105.002c-5.807,3.912-11.996,7.427-18.545,10.487
	c-39.77,18.575-83.938,16.241-120.119-2.498L73.61,201.215c-2.946-6.307-4.527-13.088-4.725-19.907s0.983-13.677,3.558-20.146
	c5.152-12.943,4.727-27.433-1.167-40.053l-22.81-48.837l59.296-27.696l22.81,48.837c2.946,6.308,7.131,11.872,12.234,16.4
	c5.098,4.531,11.12,8.024,17.732,10.201C173.765,124.372,184.609,133.995,190.503,146.615z"/>
<g>
	<path style="fill:#D6D6D6;" d="M119.171,48.019c2.949,6.312,0.219,13.826-6.094,16.775L60.562,89.323
		c-3.156,1.474-6.619,1.531-9.651,0.43c-3.037-1.104-5.655-3.364-7.13-6.521c-2.019-4.322-1.378-9.202,1.253-12.799
		c1.213-1.663,2.851-3.046,4.846-3.978l52.516-24.529c1.995-0.932,4.107-1.3,6.16-1.163c0.904,0.061,1.798,0.22,2.67,0.474
		c0.274,0.074,0.547,0.161,0.819,0.26C115.08,42.602,117.695,44.858,119.171,48.019z"/>
	<path style="fill:#D6D6D6;" d="M110.885,51.265L65.909,72.273l-3.125-6.689l-14.319,6.688l22.81,48.837
		c2.946,6.308,4.527,13.088,4.725,19.907c0.203,6.817-0.983,13.677-3.558,20.146c-5.147,12.941-4.727,27.433,1.167,40.053
		l27.273,58.391c12.753,6.607,26.501,11.175,40.696,13.501l-39.738-85.079c-5.895-12.62-8.832-25.935-8.123-36.804
		c0.358-5.432-0.2-11.478-1.584-17.743c-1.384-6.265-3.593-12.753-6.539-19.06l-4.038-8.645c-3.586-7.678-0.27-16.809,7.409-20.396
		l31.075-14.514L110.885,51.265z"/>
	<path style="fill:#D6D6D6;" d="M109.807,27.971c1.608,3.442,1.53,7.233,0.103,10.445c-0.364,0.832-0.817,1.618-1.353,2.346
		c-1.213,1.663-2.849,3.051-4.844,3.983L51.198,69.275c-1.995,0.932-4.11,1.295-6.163,1.158c-1.196-0.072-2.374-0.324-3.487-0.728
		c-3.037-1.104-5.655-3.364-7.13-6.521c-2.949-6.312-0.219-13.826,6.099-16.777l52.516-24.529c3.156-1.474,6.614-1.529,9.653-0.425
		C105.716,22.554,108.333,24.814,109.807,27.971z"/>
</g>
<g>
	<path style="fill:#E8E8E8;" d="M119.171,48.019c2.949,6.312,0.219,13.826-6.094,16.775L75.635,82.283
		c-3.156,1.474-6.614,1.529-9.651,0.43c-3.033-1.106-5.65-3.368-7.124-6.524c-1.608-3.442-1.53-7.233-0.103-10.445
		c0.364-0.832,0.817-1.618,1.351-2.351c1.213-1.663,2.851-3.046,4.846-3.978l44.957-20.998c-0.364,0.832-0.817,1.618-1.353,2.346
		c0.904,0.061,1.798,0.22,2.67,0.474c0.274,0.074,0.547,0.161,0.819,0.26C115.08,42.602,117.695,44.858,119.171,48.019z"/>
	<path style="fill:#E8E8E8;" d="M109.807,27.971c1.608,3.442,1.53,7.233,0.103,10.445c-0.364,0.832-0.817,1.618-1.353,2.346
		c0.904,0.061,1.798,0.22,2.67,0.474l-44.956,21c-1.995,0.932-4.11,1.295-6.163,1.158c-0.902-0.056-1.796-0.215-2.668-0.469
		c-0.274-0.074-0.547-0.161-0.819-0.26c-3.033-1.106-5.65-3.368-7.124-6.524c-2.949-6.312-0.219-13.826,6.094-16.775l37.443-17.489
		c3.156-1.474,6.614-1.529,9.653-0.425C105.716,22.554,108.333,24.814,109.807,27.971z"/>
</g>
<path style="fill:#4BC999;" d="M303.013,169.926L280.151,283.54c-6.995-0.299-14.063-1.143-21.148-2.57
	c-43.032-8.659-77.19-36.756-95.184-73.314l12.713-63.181c1.373-6.825,4.126-13.219,8.015-18.825
	c3.889-5.605,8.91-10.423,14.822-14.1c11.83-7.358,20.088-19.27,22.836-32.925l10.633-52.842l64.16,12.91l-10.634,52.843
	c-1.373,6.825-1.309,13.787,0.109,20.46c1.413,6.673,4.185,13.059,8.215,18.736C302.746,142.091,305.761,156.271,303.013,169.926z"
	/>
<g>
	<path style="fill:#41B787;" d="M304.135,48.238c-1.375,6.831-8.031,11.256-14.861,9.883l-56.823-11.434
		c-3.415-0.687-6.236-2.698-8.021-5.382c-1.79-2.692-2.554-6.064-1.867-9.48c0.941-4.676,4.354-8.223,8.605-9.557
		c1.963-0.617,4.103-0.759,6.261-0.325l56.823,11.434c2.159,0.434,4.077,1.392,5.648,2.721c0.691,0.586,1.317,1.244,1.868,1.966
		c0.176,0.222,0.345,0.454,0.505,0.696C304.058,41.45,304.823,44.817,304.135,48.238z"/>
	<path style="fill:#41B787;" d="M295.54,45.932l-48.666-9.792l1.457-7.238l-15.493-3.118l-10.633,52.842
		c-1.373,6.825-4.126,13.219-8.015,18.825c-3.884,5.606-8.91,10.423-14.822,14.1c-11.824,7.359-20.088,19.27-22.836,32.925
		l-12.713,63.181c6.341,12.887,14.694,24.724,24.736,35.022l18.523-92.057c2.748-13.655,8.288-26.114,15.31-34.439
		c3.513-4.159,6.653-9.356,9.258-15.219c2.606-5.863,4.678-12.395,6.052-19.22l1.882-9.354c1.671-8.307,9.762-13.688,18.069-12.015
		l33.623,6.765L295.54,45.932z"/>
	<path style="fill:#41B787;" d="M308.5,26.545c-0.75,3.725-3.062,6.728-6.118,8.468c-0.787,0.453-1.618,0.817-2.481,1.085
		c-1.963,0.617-4.104,0.764-6.262,0.33l-56.823-11.434c-2.159-0.434-4.076-1.397-5.647-2.726c-0.921-0.768-1.718-1.67-2.374-2.656
		c-1.79-2.692-2.554-6.064-1.867-9.48c1.375-6.831,8.031-11.256,14.866-9.881l56.823,11.434c3.415,0.687,6.23,2.697,8.02,5.388
		C308.423,19.757,309.187,23.131,308.5,26.545z"/>
	<path style="fill:#41B787;" d="M304.135,48.238c-1.375,6.831-8.031,11.256-14.861,9.883l-40.514-8.152
		c-3.415-0.687-6.23-2.697-8.021-5.382c-1.784-2.691-2.548-6.063-1.861-9.479c0.75-3.725,3.062-6.728,6.118-8.468
		c0.787-0.453,1.618-0.817,2.482-1.09c1.963-0.617,4.103-0.759,6.261-0.325l48.645,9.788c-0.787,0.453-1.618,0.817-2.481,1.085
		c0.691,0.586,1.317,1.244,1.868,1.966c0.176,0.222,0.345,0.454,0.505,0.696C304.058,41.45,304.823,44.817,304.135,48.238z"/>
</g>
<path style="fill:#4BC999;" d="M308.5,26.545c-0.75,3.725-3.062,6.728-6.118,8.468c-0.787,0.453-1.618,0.817-2.481,1.085
	c0.691,0.586,1.317,1.244,1.868,1.966l-48.645-9.788c-2.159-0.434-4.076-1.397-5.647-2.726c-0.692-0.581-1.318-1.238-1.869-1.961
	c-0.176-0.222-0.345-0.454-0.505-0.696c-1.785-2.691-2.548-6.063-1.861-9.479c1.374-6.831,8.031-11.256,14.861-9.883l40.514,8.152
	c3.415,0.687,6.23,2.697,8.02,5.388C308.423,19.757,309.187,23.131,308.5,26.545z"/>
<polygon style="fill:#D6D6D6;" points="478.974,74.651 441.56,226.676 350.076,204.152 320.366,196.842 357.779,44.817 
	368.358,99.369 379.25,85.611 410.898,45.634 418.734,79.218 436.086,61.866 447.84,103.847 "/>
<polygon style="fill:#E8E8E8;" points="478.974,74.651 441.56,226.676 350.076,204.163 350.076,204.152 379.25,85.611 
	410.898,45.634 418.734,79.218 436.086,61.866 447.84,103.847 "/>
<path style="fill:#494B5B;" d="M471.9,192.816l-1.145,12.693l-2.572,28.427l-16.942,187.16C404.446,476.679,334.347,512,256.001,512
	c-42.078,0-81.782-10.184-116.769-28.229c-30.156-15.557-56.812-36.945-78.471-62.675L41.237,205.519l-1.145-12.704L471.9,192.816
	L471.9,192.816z"/>
<g>
	<path style="fill:#5C5E70;" d="M468.183,233.936l-16.942,187.16C404.446,476.679,334.347,512,256.001,512
		c-42.078,0-81.782-10.184-116.769-28.229l-17.806-196.833c-2.582-28.469,19.836-53.001,48.42-53.001L468.183,233.936
		L468.183,233.936z"/>
	<path style="fill:#5C5E70;" d="M490.77,212.174c-469.595,0,0.05,0-469.545,0c-5.56,0-10.069-4.508-10.069-10.069v-31.071
		c0-5.56,4.508-10.069,10.069-10.069H490.77c5.56,0,10.069,4.508,10.069,10.069v31.071
		C500.839,207.665,496.331,212.174,490.77,212.174z"/>
</g>
<path style="fill:#FFFFFF;" d="M249.703,437.793v43.946c-20.594,0-33.952-0.111-42.563-2.589c-4.965-1.428-9.168-4.752-11.793-9.202
	l0,0c0-0.002,0-0.004-0.002-0.006c-1.643-4.547-4.245-15.002-0.267-22.855c2.634-5.204,9.379-5.356,11.413-9.296h43.211V437.793z"/>
<path style="fill:#D6D6D6;" d="M213.557,384.464l21.925,43.847l-18.666-10.071c0,0-3.44,6.222-10.324,19.552
	c-2.035,3.938-4.369,8.499-7.004,13.704c-3.978,7.853-5.785,13.9-4.142,18.446l-23.136-39.231
	c-2.295-3.895-2.455-8.693-0.419-12.731l9.571-18.999l-17.281-10.073L213.557,384.464z"/>
<path style="fill:#FFFFFF;" d="M290.216,402.178l38.059-21.973c10.297,17.835,16.879,29.459,19.04,38.155
	c1.245,5.014,0.469,10.316-2.072,14.813l0,0c-0.002,0.001-0.003,0.002-0.004,0.004c-3.117,3.697-10.87,11.177-19.66,11.659
	c-5.825,0.321-9.328-5.444-13.756-5.237L290.216,402.178z"/>
<path style="fill:#D6D6D6;" d="M262.106,460.146l27.011-40.912l0.61,21.201c0,0,7.109-0.131,22.095-0.835
	c4.429-0.207,9.545-0.465,15.37-0.786c8.79-0.481,14.93-1.94,18.046-5.636l-22.407,39.652c-2.225,3.935-6.301,6.473-10.816,6.728
	l-21.24,1.21l-0.083,20.003L262.106,460.146z"/>
<path style="fill:#FFFFFF;" d="M238.104,385.724l-38.059-21.973c10.297-17.835,17.073-29.347,23.524-35.567
	c3.718-3.585,8.7-5.564,13.866-5.611l0,0c0.002,0.001,0.003,0.002,0.006,0.001c4.76,0.851,15.114,3.825,19.927,11.197
	c3.189,4.885-0.05,10.8,2.343,14.531L238.104,385.724z"/>
<path style="fill:#D6D6D6;" d="M302.362,381.085l-48.936-2.936l18.055-11.129c0,0-3.668-6.09-11.771-18.718
	c-2.394-3.731-5.176-8.033-8.366-12.918c-4.812-7.372-9.145-11.96-13.904-12.811l45.544-0.421c4.521-0.041,8.756,2.22,11.234,6.003
	l11.669,17.789l17.364-9.929L302.362,381.085z"/>
<g>
	<path style="fill:#FFFFFF;" d="M167.419,247.111c-4.431,0-6.996,2.488-6.996,7.773v20.598c0,5.286,2.566,7.772,6.918,7.772
		c4.354,0,6.996-2.488,6.996-7.772v-2.643h-4.586c-2.331,0-3.654-2.254-3.654-4.664c0-2.254,1.322-4.664,3.654-4.664h13.058
		c2.332,0,3.654,1.788,3.654,3.809v8.162c0,13.369-8.395,18.343-19.121,18.343s-19.043-4.974-19.043-18.343v-20.598
		c0-13.369,8.473-18.344,18.655-18.344c11.116,0,19.509,5.597,19.509,15.467c0,4.664-1.943,5.752-6.062,5.752
		c-3.265,0-5.985-0.855-6.062-3.653C174.258,251.309,174.025,247.111,167.419,247.111z"/>
	<path style="fill:#FFFFFF;" d="M201.079,293.359c-2.643,0-5.285-1.243-5.285-3.731v-49.435c0-2.565,3.031-3.654,6.062-3.654
		c3.031,0,6.062,1.088,6.062,3.654v42.595h17.723c2.331,0,3.497,2.643,3.497,5.286s-1.165,5.286-3.497,5.286L201.079,293.359
		L201.079,293.359z"/>
	<path style="fill:#FFFFFF;" d="M232.484,288.385c0-0.233,0.077-0.544,0.155-0.855l14.457-47.414
		c0.855-2.721,4.354-4.042,7.928-4.042c3.575,0,7.072,1.321,7.927,4.042l14.535,47.414c0.077,0.311,0.155,0.622,0.155,0.855
		c0,2.876-4.431,4.974-7.773,4.974c-1.943,0-3.497-0.622-3.964-2.254l-2.643-9.716h-16.4l-2.643,9.716
		c-0.466,1.632-2.021,2.254-3.965,2.254C236.914,293.359,232.484,291.261,232.484,288.385z M260.699,272.061l-5.674-20.831
		l-5.674,20.831H260.699z"/>
	<path style="fill:#FFFFFF;" d="M307.806,278.125c0-9.405-24.64-7.772-24.64-25.961c0-11.659,10.183-16.09,19.898-16.09
		c4.119,0,15.467,0.778,15.467,6.84c0,2.099-1.399,6.374-4.819,6.374c-2.799,0-4.274-2.953-10.649-2.953
		c-5.519,0-7.773,2.254-7.773,4.664c0,7.773,24.64,6.296,24.64,25.883c0,11.193-8.162,17.256-19.431,17.256
		c-10.183,0-18.733-4.974-18.733-10.105c0-2.643,2.331-6.529,5.286-6.529c3.654,0,5.985,5.751,13.213,5.751
		C303.842,283.254,307.806,281.856,307.806,278.125z"/>
	<path style="fill:#FFFFFF;" d="M351.569,278.125c0-9.405-24.64-7.772-24.64-25.961c0-11.659,10.182-16.09,19.898-16.09
		c4.119,0,15.467,0.778,15.467,6.84c0,2.099-1.399,6.374-4.819,6.374c-2.799,0-4.274-2.953-10.649-2.953
		c-5.519,0-7.773,2.254-7.773,4.664c0,7.773,24.64,6.296,24.64,25.883c0,11.193-8.162,17.256-19.431,17.256
		c-10.183,0-18.733-4.974-18.733-10.105c0-2.643,2.331-6.529,5.286-6.529c3.654,0,5.985,5.751,13.213,5.751
		C347.604,283.254,351.569,281.856,351.569,278.125z"/>
</g>
<g>
</g>
<g>
</g>
<g>
</g>
<g>
</g>
<g>
</g>
<g>
</g>
<g>
</g>
<g>
</g>
<g>
</g>
<g>
</g>
<g>
</g>
<g>
</g>
<g>
</g>
<g>
</g>
<g>
</g>
</svg>
