<?xml version="1.0" encoding="iso-8859-1"?>
<!-- Generator: Adobe Illustrator 19.0.0, SVG Export Plug-In . SVG Version: 6.00 Build 0)  -->
<svg version="1.1" id="Capa_1" xmlns="http://www.w3.org/2000/svg" xmlns:xlink="http://www.w3.org/1999/xlink" x="0px" y="0px"
	 viewBox="0 0 512 512" style="enable-background:new 0 0 512 512;" xml:space="preserve">
<circle style="fill:#41B787;" cx="256" cy="255.999" r="255.999"/>
<circle style="fill:#4BC999;" cx="256" cy="213.295" r="213.295"/>
<path style="fill:#D6D6D6;" d="M67.661,81.702c-1.411,0.6-3.069,0.583-4.531-0.188L41.442,70.076
	c-2.579-1.36-3.567-4.554-2.207-7.134c1.359-2.579,4.554-3.567,7.134-2.207l21.687,11.438c2.579,1.36,3.567,4.554,2.207,7.134
	C69.674,80.426,68.739,81.245,67.661,81.702z"/>
<path style="fill:#E8E8E8;" d="M244.61,270.441c-1.41,1.033-2.846,2.034-4.304,3.013c-7.24,4.85-15.03,9.091-23.345,12.622
	c-8.309,3.53-16.77,6.194-25.281,8.035c-8.395,1.811-16.841,2.83-25.241,3.079l-0.005,0.002c-6.777,0.2-13.512-0.098-20.177-0.878
	c-0.234-0.024-0.47-0.054-0.701-0.087c-0.076-0.005-0.15-0.017-0.224-0.029c-2.598-0.318-5.184-0.707-7.757-1.171
	c-2.383-0.426-4.756-0.914-7.112-1.464c-3.982-0.933-7.913-2.035-11.795-3.315l-74.887-186.51l-0.002-0.005l-0.684-18.478
	l93.737-39.823l12.825,13.319l0.002,0.005L244.61,270.441z"/>
<path style="fill:#D6D6D6;" d="M63.83,76.448l0.203,5.442l0.482,13.036l0.002,0.005l77.13,192.097l3.686,9.174
	c-2.598-0.318-5.184-0.707-7.757-1.171c-2.383-0.426-4.756-0.914-7.112-1.464c-3.982-0.933-7.913-2.035-11.795-3.315L43.782,103.739
	l-0.002-0.005l-0.684-18.478L63.83,76.448z"/>
<path style="fill:#34ABE0;" d="M170.386,64.099l80.943,190.526c1.548,3.642,1.307,7.604-0.33,10.892
	c-2.07,1.698-4.202,3.343-6.39,4.924c-1.41,1.033-2.846,2.034-4.304,3.013l-48.626,20.659c-8.395,1.811-16.841,2.83-25.241,3.079
	l-0.005,0.002c-6.777,0.2-13.512-0.098-20.177-0.878c-0.234-0.024-0.47-0.054-0.701-0.087c-0.076-0.005-0.15-0.017-0.224-0.029
	c-2.598-0.318-5.184-0.707-7.757-1.171c-2.383-0.426-4.756-0.914-7.112-1.464c-3.982-0.933-7.913-2.035-11.795-3.315
	c-5.816-1.904-11.502-4.19-17.016-6.843L33.238,122.365c-2.811-6.617,0.275-14.263,6.892-17.074l113.183-48.084
	C159.929,54.395,167.575,57.482,170.386,64.099z"/>
<path style="fill:#279FC9;" d="M60.721,96.543l84.835,199.687c-0.076-0.005-0.15-0.017-0.224-0.029
	c-2.598-0.318-5.184-0.707-7.757-1.171c-2.383-0.426-4.756-0.914-7.112-1.464c-3.982-0.933-7.913-2.035-11.795-3.315
	c-5.816-1.904-11.502-4.19-17.016-6.843L33.238,122.365c-2.811-6.617,0.275-14.263,6.892-17.074L60.721,96.543z"/>
<polygon style="fill:#E8E8E8;" points="481.583,100.842 492.011,88.019 479.874,76.805 486.251,61.561 471.435,54.247 
	473.249,37.822 456.974,34.965 454.111,18.691 437.69,20.521 430.349,5.717 415.118,12.126 403.895,0 391.068,10.418 376.895,1.922 
	367.536,15.54 351.538,11.408 346.404,27.115 329.889,27.644 329.365,44.159 313.663,49.308 317.823,65.299 304.224,74.684 
	312.735,88.852 302.308,101.675 314.443,112.888 308.066,128.131 322.884,135.447 321.069,151.87 337.344,154.728 340.206,171.002 
	356.628,169.173 363.968,183.976 379.199,177.568 390.424,189.694 403.249,179.275 417.423,187.772 426.782,174.154 442.78,178.285 
	447.913,162.578 464.43,162.05 464.953,145.534 480.655,140.386 476.495,124.395 490.094,115.01 "/>
<circle style="fill:#D6D6D6;" cx="397.155" cy="94.845" r="73.071"/>
<g>
	<circle style="fill:#E8E8E8;" cx="397.155" cy="94.845" r="55.421"/>
	
		<rect x="262.73" y="146.22" transform="matrix(-0.935 -0.3546 0.3546 -0.935 585.7543 563.3065)" style="fill:#E8E8E8;" width="163.523" height="163.523"/>
</g>
<rect x="266.82" y="123.9" transform="matrix(-0.935 -0.3546 0.3546 -0.935 479.8159 499.2527)" style="fill:#D6D6D6;" width="37.668" height="163.523"/>
<path style="fill:#279FC9;" d="M454.998,192.022c-1.348,3.574-4.754,5.778-8.37,5.778c-1.034,0-2.079-0.178-3.103-0.564
	l-125.962-47.773h-0.01l-26.739-10.146c-4.618-1.755-6.938-6.917-5.193-11.536c1.358-3.574,4.765-5.778,8.37-5.778
	c1.055,0,2.121,0.188,3.166,0.585l26.76,10.146l26.749,10.146l99.14,37.606C454.434,182.241,456.754,187.403,454.998,192.022z"/>
<path style="fill:#34ABE0;" d="M454.998,192.022c-1.348,3.574-4.754,5.778-8.37,5.778c-1.034,0-2.079-0.178-3.103-0.564
	l-125.962-47.773h-0.01c-4.608-1.766-6.928-6.917-5.172-11.536c1.348-3.574,4.754-5.778,8.37-5.778c1.055,0,2.121,0.188,3.166,0.585
	l26.749,10.146l99.14,37.606C454.434,182.241,456.754,187.403,454.998,192.022z"/>
<path style="fill:#EDBB4C;" d="M472.65,191.708l-1.149,12.737l-2.581,28.526l-17,187.81C404.961,476.557,334.619,512,256.001,512
	c-42.224,0-82.066-10.219-117.175-28.327c-30.26-15.611-57.01-37.073-78.743-62.892L40.491,204.456l-1.149-12.748H472.65z"/>
<g>
	<path style="fill:#FFD15C;" d="M468.919,232.971l-17,187.81C404.961,476.557,334.619,512,256.001,512
		c-42.224,0-82.066-10.219-117.175-28.327l-17.868-197.517c-2.591-28.567,19.905-53.185,48.588-53.185H468.919z"/>
	<path style="fill:#FFD15C;" d="M491.585,211.134c-471.225,0,0.05,0-471.175,0c-5.58,0-10.104-4.523-10.104-10.104v-31.179
		c0-5.58,4.523-10.104,10.104-10.104h471.175c5.58,0,10.104,4.523,10.104,10.104v31.179
		C501.688,206.61,497.165,211.134,491.585,211.134z"/>
</g>
<path style="fill:#FFFFFF;" d="M249.681,437.535v44.099c-20.666,0-34.07-0.112-42.711-2.598c-4.982-1.433-9.2-4.769-11.833-9.234
	l0,0c0-0.002,0-0.004-0.002-0.006c-1.649-4.563-4.26-15.054-0.267-22.934c2.644-5.222,9.411-5.375,11.453-9.328h43.361V437.535z"/>
<path style="fill:#5C5E70;" d="M213.409,384.022l22.001,44.001l-18.731-10.106c0,0-3.452,6.243-10.36,19.621
	c-2.042,3.952-4.384,8.528-7.028,13.752c-3.992,7.881-5.805,13.948-4.157,18.51l-23.217-39.367
	c-2.303-3.909-2.464-8.723-0.42-12.775l9.605-19.065l-17.341-10.108L213.409,384.022z"/>
<path style="fill:#FFFFFF;" d="M290.335,401.798l38.191-22.049c10.333,17.897,16.938,29.561,19.106,38.287
	c1.25,5.031,0.47,10.352-2.079,14.865l0,0c-0.002,0.001-0.003,0.002-0.004,0.005c-3.127,3.709-10.908,11.216-19.729,11.7
	c-5.845,0.322-9.36-5.463-13.804-5.255L290.335,401.798z"/>
<path style="fill:#5C5E70;" d="M262.127,459.967l27.105-41.054l0.612,21.274c0,0,7.134-0.132,22.172-0.838
	c4.444-0.208,9.579-0.467,15.424-0.789c8.821-0.484,14.982-1.947,18.109-5.656l-22.486,39.79c-2.233,3.949-6.323,6.495-10.853,6.751
	l-21.314,1.214l-0.084,20.072L262.127,459.967z"/>
<path style="fill:#FFFFFF;" d="M238.042,385.285l-38.191-22.049c10.333-17.897,17.132-29.449,23.605-35.69
	c3.731-3.598,8.73-5.583,13.914-5.631l0,0c0.002,0.001,0.003,0.002,0.006,0.001c4.776,0.854,15.167,3.838,19.996,11.236
	c3.201,4.902-0.05,10.838,2.351,14.582L238.042,385.285z"/>
<path style="fill:#5C5E70;" d="M302.523,380.63l-49.106-2.947l18.117-11.168c0,0-3.681-6.112-11.812-18.783
	c-2.402-3.744-5.194-8.061-8.395-12.963c-4.828-7.398-9.176-12.002-13.952-12.855l45.702-0.422
	c4.537-0.041,8.787,2.228,11.273,6.024l11.709,17.851l17.425-9.963L302.523,380.63z"/>
<g>
	<path style="fill:#FFFFFF;" d="M176.275,272.399c-1.015,1.717-2.575,2.262-4.056,2.262c-1.404,0-2.886-0.468-3.822-2.262
		l-7.409-13.571v30.029c0,2.496-3.042,3.744-6.083,3.744s-6.083-1.248-6.083-3.744v-47.189c0-4.446,3.042-6.084,6.083-6.084
		c4.368,0,6.24,0.468,9.438,6.084l8.033,14.039l8.033-14.039c3.198-5.616,5.07-6.084,9.438-6.084c3.119,0,6.083,1.638,6.083,6.084
		v47.189c0,2.496-3.042,3.744-6.083,3.744s-6.083-1.248-6.083-3.744v-29.249L176.275,272.399z"/>
	<path style="fill:#FFFFFF;" d="M216.526,259.373h11.7c2.34,0,3.665,2.262,3.665,4.758c0,2.105-1.092,4.602-3.665,4.602h-11.7v13.26
		h20.903c2.34,0,3.667,2.496,3.667,5.381c0,2.496-1.092,5.226-3.667,5.226h-27.767c-2.652,0-5.303-1.248-5.303-3.744v-49.528
		c0-2.496,2.651-3.744,5.303-3.744h27.767c2.575,0,3.667,2.73,3.667,5.226c0,2.886-1.327,5.381-3.667,5.381h-20.903V259.373z"/>
	<path style="fill:#FFFFFF;" d="M285.399,235.584c2.575,0,3.667,2.809,3.667,5.382c0,2.963-1.327,5.538-3.667,5.538h-10.763v42.353
		c0,2.496-3.042,3.744-6.083,3.744c-3.042,0-6.084-1.248-6.084-3.744v-42.353h-10.763c-2.34,0-3.665-2.574-3.665-5.538
		c0-2.574,1.092-5.382,3.665-5.382H285.399z"/>
	<path style="fill:#FFFFFF;" d="M285.092,287.609c0-0.234,0.077-0.545,0.156-0.858l14.507-47.578
		c0.858-2.73,4.368-4.056,7.956-4.056c3.588,0,7.097,1.326,7.955,4.056l14.586,47.578c0.078,0.312,0.156,0.624,0.156,0.858
		c0,2.886-4.446,4.991-7.8,4.991c-1.95,0-3.51-0.624-3.978-2.262l-2.652-9.75H299.52l-2.652,9.75
		c-0.468,1.637-2.028,2.262-3.978,2.262C289.537,292.601,285.092,290.495,285.092,287.609z M313.404,271.23l-5.694-20.903
		l-5.694,20.903H313.404z"/>
	<path style="fill:#FFFFFF;" d="M340.238,292.601c-2.651,0-5.303-1.248-5.303-3.744v-49.606c0-2.574,3.042-3.667,6.083-3.667
		c3.042,0,6.083,1.092,6.083,3.667v42.743h17.784c2.34,0,3.509,2.652,3.509,5.304c0,2.652-1.169,5.304-3.509,5.304L340.238,292.601
		L340.238,292.601z"/>
</g>
<g>
</g>
<g>
</g>
<g>
</g>
<g>
</g>
<g>
</g>
<g>
</g>
<g>
</g>
<g>
</g>
<g>
</g>
<g>
</g>
<g>
</g>
<g>
</g>
<g>
</g>
<g>
</g>
<g>
</g>
</svg>
