<?xml version="1.0" encoding="iso-8859-1"?>
<!-- Generator: Adobe Illustrator 19.0.0, SVG Export Plug-In . SVG Version: 6.00 Build 0)  -->
<svg version="1.1" id="Layer_1" xmlns="http://www.w3.org/2000/svg" xmlns:xlink="http://www.w3.org/1999/xlink" x="0px" y="0px"
	 viewBox="0 0 512 512" style="enable-background:new 0 0 512 512;" xml:space="preserve">
<path style="fill:#70f0c3;" d="M276.374,396.86l104.858-121.578c9.555-11.079,9.555-27.485,0-38.563L276.374,115.14
	c-8.869-10.284-21.774-16.196-35.353-16.196l0,0c-39.953,0-61.448,46.922-35.353,77.177l52.262,60.597
	c9.555,11.079,9.555,27.485,0,38.563l-52.262,60.597c-26.095,30.255-4.6,77.177,35.353,77.177l0,0
	C254.6,413.055,267.505,407.144,276.374,396.86z"/>
<g>
	<path style="fill:#53c286;" d="M241.021,428.761c-24.702,0-46.437-13.95-56.724-36.407s-6.656-48.027,9.477-66.733l52.262-60.597
		c4.437-5.144,4.437-12.904,0-18.047l-52.262-60.597c-16.133-18.705-19.764-44.275-9.477-66.733s32.022-36.409,56.724-36.409
		c18.163,0,35.385,7.889,47.247,21.644l104.856,121.578c14.524,16.839,14.524,42.238,0,59.078l-104.858,121.58
		C276.405,420.872,259.184,428.761,241.021,428.761z M241.021,114.65c-12.451,0-22.98,6.758-28.166,18.079
		c-5.186,11.321-3.429,23.707,4.704,33.136l52.262,60.597c14.524,16.839,14.524,42.238,0,59.078l-52.262,60.597
		c-8.132,9.428-9.89,21.817-4.704,33.135c5.186,11.319,15.715,18.079,28.166,18.079c9.018,0,17.57-3.917,23.459-10.746
		l104.859-121.58c4.437-5.144,4.437-12.904,0-18.047L264.48,125.398C258.589,118.567,250.039,114.65,241.021,114.65z"/>
	<path style="fill:#53c286;" d="M265.636,512c-141.16,0-256-114.842-256-256s114.84-256,256-256
		c102.647,0,195.069,60.985,235.457,155.364c3.413,7.974-0.286,17.205-8.26,20.617c-7.98,3.418-17.207-0.286-20.618-8.26
		c-35.436-82.806-116.524-136.31-206.579-136.31C141.796,31.411,41.047,132.16,41.047,256s100.749,224.589,224.589,224.589
		c88.898,0,169.569-52.551,205.521-133.88c3.507-7.933,12.784-11.523,20.714-8.015c7.934,3.507,11.522,12.781,8.016,20.714
		C458.908,452.105,366.96,512,265.636,512z"/>
</g>
<g>
</g>
<g>
</g>
<g>
</g>
<g>
</g>
<g>
</g>
<g>
</g>
<g>
</g>
<g>
</g>
<g>
</g>
<g>
</g>
<g>
</g>
<g>
</g>
<g>
</g>
<g>
</g>
<g>
</g>
</svg>
