<?xml version="1.0" encoding="iso-8859-1"?>
<!-- Generator: Adobe Illustrator 19.0.0, SVG Export Plug-In . SVG Version: 6.00 Build 0)  -->
<svg version="1.1" id="Capa_1" xmlns="http://www.w3.org/2000/svg" xmlns:xlink="http://www.w3.org/1999/xlink" x="0px" y="0px"
	 viewBox="0 0 512.001 512.001" style="enable-background:new 0 0 512.001 512.001;" xml:space="preserve">
<path style="fill:#E0F7FF;" d="M445.824,400.315H177.198c-9.824,0-17.788-7.964-17.788-17.788V25.288
	c0-9.824,7.964-17.788,17.788-17.788h194.191c50.933,0,92.223,41.29,92.223,92.223v282.805
	C463.612,392.351,455.648,400.315,445.824,400.315z"/>
<path style="fill:#BDECFF;" d="M282.471,7.5H177.198c-9.824,0-17.788,7.964-17.788,17.788v357.239
	c0,9.824,7.964,17.788,17.788,17.788h268.626c9.824,0,17.788-7.964,17.788-17.788v-75.312
	C333.788,292.302,276.86,88.775,282.471,7.5z"/>
<path style="fill:#7FAFE3;" d="M397.143,94.787L397.143,94.787c22.203-4.255,45.138-2.552,66.469,4.936l0,0l0,0
	c0-50.933-41.29-92.223-92.223-92.223l0,0l0,0c7.488,21.331,9.191,44.266,4.936,66.469l0,0
	C373.959,86.315,384.797,97.153,397.143,94.787z"/>
<path style="fill:#E0F7FF;" d="M334.804,504.5H66.178c-9.824,0-17.788-7.964-17.788-17.788V129.473
	c0-9.824,7.964-17.788,17.788-17.788h194.191c50.933,0,92.223,41.29,92.223,92.223v282.805
	C352.592,496.536,344.628,504.5,334.804,504.5z"/>
<path style="fill:#BDECFF;" d="M132.724,111.685H66.178c-9.824,0-17.788,7.964-17.788,17.788v357.239
	c0,9.824,7.964,17.788,17.788,17.788h250.663C86.109,470.111,127.27,226.006,132.724,111.685z"/>
<g>
	<ellipse style="fill:#EA7786;" cx="126.311" cy="433.42" rx="27.37" ry="21.796"/>
	<ellipse style="fill:#EA7786;" cx="274.671" cy="433.42" rx="27.37" ry="21.796"/>
</g>
<path style="fill:#7FAFE3;" d="M286.123,198.972L286.123,198.972c22.203-4.255,45.138-2.552,66.469,4.936l0,0l0,0
	c0-50.933-41.29-92.223-92.223-92.223l0,0l0,0c7.488,21.331,9.191,44.266,4.936,66.469l0,0
	C262.939,190.5,273.777,201.338,286.123,198.972z"/>
<g>
	<path style="fill:#60C28E;" d="M176.764,346.08h-36.195c-8.436,0-15.989-4.361-20.207-11.667
		c-4.217-7.305-4.217-16.027,0.001-23.332l29.961-51.894c2.07-3.587,6.655-4.816,10.245-2.745c3.587,2.071,4.816,6.658,2.745,10.245
		l-29.961,51.894c-2.171,3.76-0.724,7.08,0,8.333c0.723,1.253,2.874,4.167,7.216,4.167h36.195c4.143,0,7.5,3.358,7.5,7.5
		C184.264,342.722,180.906,346.08,176.764,346.08z"/>
	<path style="fill:#60C28E;" d="M260.413,346.08h-59.922c-4.143,0-7.5-3.358-7.5-7.5s3.357-7.5,7.5-7.5h59.922
		c4.342,0,6.493-2.914,7.216-4.167c0.724-1.253,2.171-4.572,0-8.332l-19.949-34.555c-2.071-3.587-0.842-8.174,2.745-10.245
		c3.585-2.072,8.175-0.842,10.245,2.745l19.949,34.554c4.218,7.305,4.218,16.027,0.001,23.332
		C276.402,341.719,268.849,346.08,260.413,346.08z"/>
	<path style="fill:#60C28E;" d="M244.17,270.439c-2.592,0-5.113-1.345-6.502-3.751l-29.961-51.894
		c-2.171-3.76-5.77-4.167-7.216-4.167c-1.447,0-5.046,0.406-7.217,4.167l-19.95,34.554c-2.07,3.587-6.657,4.815-10.245,2.745
		c-3.587-2.071-4.816-6.658-2.745-10.245l19.95-34.554c4.218-7.305,11.771-11.667,20.207-11.667c8.435,0,15.988,4.361,20.206,11.667
		l29.961,51.894c2.071,3.587,0.842,8.174-2.745,10.245C246.732,270.114,245.442,270.439,244.17,270.439z"/>
	<path style="fill:#60C28E;" d="M224.532,366.793c-1.562,0-3.136-0.485-4.482-1.492l-21.844-16.316
		c-3.314-2.476-5.216-6.269-5.216-10.406s1.901-7.93,5.217-10.405l21.843-16.316c3.318-2.479,8.019-1.797,10.497,1.521
		c2.479,3.318,1.798,8.018-1.52,10.497l-19.685,14.704l19.685,14.704c3.318,2.479,3.999,7.178,1.52,10.497
		C229.074,365.752,226.817,366.793,224.532,366.793z"/>
	<path style="fill:#60C28E;" d="M241.434,271.185c-1.735,0-3.478-0.354-5.138-1.066l-25.054-10.76
		c-3.806-1.634-5.566-6.045-3.932-9.851c1.636-3.806,6.045-5.566,9.852-3.932l22.576,9.696l2.891-24.399
		c0.487-4.114,4.222-7.055,8.331-6.566c4.113,0.487,7.053,4.217,6.565,8.33l-3.208,27.076c-0.487,4.108-2.821,7.651-6.404,9.719
		C245.896,270.597,243.671,271.185,241.434,271.185z"/>
	<path style="fill:#60C28E;" d="M162.722,301.62c-3.748,0-6.986-2.805-7.439-6.619l-2.891-24.399l-22.575,9.696
		c-3.807,1.635-8.216-0.126-9.852-3.931c-1.635-3.806,0.126-8.217,3.932-9.851l25.052-10.76c3.801-1.632,8.035-1.383,11.618,0.686
		c3.583,2.068,5.917,5.611,6.404,9.719l3.208,27.076c0.487,4.113-2.452,7.843-6.565,8.33
		C163.315,301.603,163.017,301.62,162.722,301.62z"/>
	<path style="fill:#60C28E;" d="M260.413,346.08h-59.922c-4.143,0-7.5-3.358-7.5-7.5s3.357-7.5,7.5-7.5h59.922
		c4.342,0,6.493-2.914,7.216-4.167c0.724-1.253,2.171-4.572,0-8.332l-18.097-31.346c-2.071-3.588-0.842-8.174,2.745-10.245
		c3.586-2.072,8.175-0.843,10.245,2.745l18.097,31.346c4.218,7.305,4.218,16.027,0.001,23.332
		C276.402,341.719,268.849,346.08,260.413,346.08z"/>
</g>
<path d="M463.612,130.793c4.143,0,7.5-3.358,7.5-7.5v-23.57C471.112,44.735,426.377,0,371.39,0H177.198
	c-13.944,0-25.288,11.344-25.288,25.288v78.896H66.178c-13.944,0-25.288,11.344-25.288,25.288v315.233c0,4.142,3.357,7.5,7.5,7.5
	s7.5-3.358,7.5-7.5V129.473c0-5.673,4.615-10.288,10.288-10.288h188.737c5.632,18.623,6.693,38.408,3.024,57.558
	c-1.579,8.242,1.021,16.706,6.954,22.641c5.935,5.935,14.396,8.537,22.643,6.955c19.147-3.669,38.935-2.608,57.557,3.024v277.35
	c0,5.673-4.615,10.288-10.288,10.288H66.178c-5.673,0-10.288-4.615-10.288-10.288v-6.8c0-4.142-3.357-7.5-7.5-7.5
	s-7.5,3.358-7.5,7.5v6.8c0,13.944,11.344,25.288,25.288,25.288h268.626c13.944,0,25.288-11.344,25.288-25.288v-78.897h85.732
	c13.944,0,25.288-11.344,25.288-25.288V158.843c0-4.142-3.357-7.5-7.5-7.5c-4.142,0-7.5,3.358-7.5,7.5v223.684
	c0,5.673-4.615,10.288-10.288,10.288h-85.732v-64.281h46.261c4.143,0,7.5-3.358,7.5-7.5s-3.357-7.5-7.5-7.5h-46.261v-34.823h46.261
	c4.143,0,7.5-3.358,7.5-7.5s-3.357-7.5-7.5-7.5h-46.261v-34.823h46.261c4.143,0,7.5-3.358,7.5-7.5s-3.357-7.5-7.5-7.5h-46.261v-9.98
	c0-54.987-44.735-99.723-99.723-99.723H166.91V25.288c0-5.673,4.615-10.288,10.288-10.288h188.737
	c5.632,18.623,6.693,38.408,3.024,57.558c-1.579,8.242,1.02,16.706,6.955,22.641c5.934,5.934,14.398,8.535,22.641,6.955
	c19.151-3.668,38.936-2.607,57.558,3.024v18.116C456.112,127.435,459.47,130.793,463.612,130.793z M344.443,193.603
	c-19.464-5.08-39.9-5.797-59.731-1.997c-3.407,0.653-6.763-0.379-9.212-2.83c-2.45-2.45-3.481-5.808-2.829-9.211
	c3.8-19.831,3.083-40.267-1.997-59.732C309.164,124.525,339.751,155.113,344.443,193.603z M395.73,87.421
	c-3.398,0.65-6.76-0.378-9.21-2.83c-2.45-2.45-3.481-5.808-2.829-9.211c3.8-19.831,3.083-40.267-1.996-59.732
	c38.489,4.691,69.077,35.279,73.768,73.769C436,84.337,415.564,83.62,395.73,87.421z M266.216,411.672v-9.665
	c0-4.142-3.357-7.5-7.5-7.5s-7.5,3.358-7.5,7.5v9.665c0,4.142,3.357,7.5,7.5,7.5C262.858,419.172,266.216,415.814,266.216,411.672z
	 M149.766,411.672v-9.665c0-4.142-3.357-7.5-7.5-7.5s-7.5,3.358-7.5,7.5v9.665c0,4.142,3.357,7.5,7.5,7.5
	C146.408,419.172,149.766,415.814,149.766,411.672z M200.491,426.594c8.051,0,15.706-3.487,21.005-9.566
	c2.722-3.123,2.395-7.86-0.727-10.582c-3.125-2.721-7.86-2.396-10.582,0.727c-2.448,2.81-5.982,4.421-9.696,4.421
	s-7.249-1.611-9.697-4.421c-2.723-3.123-7.46-3.447-10.582-0.727c-3.122,2.722-3.448,7.459-0.727,10.582
	C184.784,423.107,192.44,426.594,200.491,426.594z"/>
<g>
</g>
<g>
</g>
<g>
</g>
<g>
</g>
<g>
</g>
<g>
</g>
<g>
</g>
<g>
</g>
<g>
</g>
<g>
</g>
<g>
</g>
<g>
</g>
<g>
</g>
<g>
</g>
<g>
</g>
</svg>
