<?xml version="1.0" encoding="iso-8859-1"?>
<!-- Generator: Adobe Illustrator 19.0.0, SVG Export Plug-In . SVG Version: 6.00 Build 0)  -->
<svg version="1.1" id="Capa_1" xmlns="http://www.w3.org/2000/svg" xmlns:xlink="http://www.w3.org/1999/xlink" x="0px" y="0px"
	 viewBox="0 0 512 512" style="enable-background:new 0 0 512 512;" xml:space="preserve">
<circle style="fill:#41B787;" cx="256" cy="255.999" r="255.999"/>
<circle style="fill:#4BC999;" cx="256" cy="213.295" r="213.295"/>
<path style="fill:#E8E8E8;" d="M450.599,285.257l-10.596,44.532c-5.936,0.61-11.98,0.858-18.095,0.736
	c-44.136-0.901-83.363-21.045-109.832-52.272c3.683-8.115,9.352-15.13,16.386-20.417c5.604-4.228,9.054-10.729,9.201-17.749
	l0.024-1.116c0.094-4.674-1.284-9.17-3.83-12.968c-1.265-1.914-2.831-3.65-4.642-5.136c-12.113-9.919-19.721-25.09-19.379-41.953
	l0.537-26.696c0.457-22.263,14.607-41.008,34.261-48.381c6.185-2.328,10.389-8.129,10.53-14.738l0.394-19.411l58.569,1.188
	l-0.394,19.411c-0.131,6.611,3.822,12.576,9.922,15.156c19.324,8.163,32.712,27.471,32.266,49.725l-0.548,26.694
	c-0.343,16.864-8.557,31.715-21.064,41.131c-5.199,3.916-8.536,9.769-9.114,16.189c-0.054,0.52-0.075,1.034-0.088,1.56l-0.024,1.116
	c-0.147,7.021,3.033,13.656,8.473,18.104C441.508,266.472,447.517,275.236,450.599,285.257z"/>
<path style="fill:#D6D6D6;" d="M414.126,70.883l-0.266,13.111l-36.776-0.747c-1.738-0.036-3.327,0.638-4.49,1.75
	c-1.158,1.117-1.895,2.678-1.931,4.416c-0.135,6.619-2.179,12.451-5.113,14.848c-9.329,7.58-16.19,26.479-16.642,48.743
	l-0.542,26.688c-0.343,16.865,3.069,31.958,8.665,41.735c2.507,4.397,3.942,10.982,3.799,18.011l-0.023,1.116
	c-0.143,7.024-1.844,13.556-4.528,17.835c-5.989,9.555-10.01,24.485-10.353,41.35l-0.16,7.874
	c-12.676-8.045-24.034-17.969-33.696-29.363c3.678-8.123,9.35-15.13,16.387-20.426c5.609-4.22,9.055-10.717,9.197-17.741
	l0.023-1.116c0.143-7.029-3.036-13.649-8.469-18.106c-12.125-9.91-19.718-25.089-19.375-41.954l0.542-26.688
	c0.452-22.265,14.601-41.015,34.249-48.385c6.192-2.331,10.397-8.119,10.53-14.738l0.394-19.405L414.126,70.883z"/>
<path style="fill:#EDBB4C;" d="M418.824,47.791l-0.497,24.485l-67.022-1.361l0.497-24.485c0.147-7.238,6.131-12.985,13.369-12.838
	l40.806,0.829C413.216,34.569,418.971,40.553,418.824,47.791z"/>
<path style="fill:#FFD15C;" d="M418.824,47.791l-0.497,24.485l-47.642-0.968l0.497-24.485c0.147-7.238,6.131-12.985,13.369-12.838
	l21.426,0.435C413.216,34.569,418.971,40.553,418.824,47.791z"/>
<g>
	<path style="fill:#FCFCFC;" d="M424.112,192.2L424.112,192.2c-7.662-0.156-13.748-6.493-13.592-14.156l0.68-33.498
		c0.156-7.662,6.493-13.748,14.156-13.592l0,0c7.662,0.156,13.748,6.493,13.592,14.156l-0.68,33.498
		C438.113,186.27,431.774,192.356,424.112,192.2z"/>
	<path style="fill:#FCFCFC;" d="M435.534,313.251l-0.345,16.954c-4.382,0.298-8.81,0.406-13.281,0.316
		c-4.887-0.099-9.715-0.433-14.467-1l0.342-16.834c0.156-7.663,6.491-13.746,14.153-13.59c3.832,0.077,7.269,1.699,9.728,4.26
		C434.132,305.918,435.612,309.42,435.534,313.251z"/>
</g>
<path style="fill:#E8E8E8;" d="M170.914,219.126l-0.368,1.054c-2.312,6.633-1.339,13.926,2.453,19.843
	c8.444,13.181,10.976,29.958,5.422,45.892l-8.586,24.637c-9.955-1.29-19.924-3.621-29.777-7.055
	c-41.687-14.528-72.744-45.842-88.234-83.733c6.018-6.576,13.584-11.487,21.907-14.337c6.642-2.28,11.938-7.388,14.249-14.021
	l0.368-1.054c2.312-6.633,1.339-13.926-2.448-19.84c-8.444-13.181-10.973-29.963-5.422-45.892l8.787-25.211
	c7.327-21.023,26.596-34.465,47.559-35.384c6.608-0.292,12.403-4.504,14.579-10.75l6.39-18.333l55.319,19.279l-6.39,18.333
	c-2.177,6.246-0.261,13.145,4.74,17.482c15.846,13.748,22.592,36.256,15.265,57.279l-8.787,25.211
	c-5.552,15.928-17.964,27.503-32.771,32.581C178.521,207.385,173.225,212.492,170.914,219.126z"/>
<path style="fill:#D6D6D6;" d="M213.11,54.225l-4.315,12.383L174.06,54.503c-1.642-0.572-3.361-0.423-4.812,0.273
	c-1.447,0.703-2.632,1.959-3.204,3.6c-2.179,6.252-5.929,11.163-9.462,12.534c-11.218,4.315-23.598,20.158-30.927,41.188
	l-8.784,25.206c-5.552,15.928-6.984,31.336-4.694,42.366c1.021,4.957,0.345,11.662-1.969,18.301l-0.368,1.054
	c-2.312,6.633-5.955,12.317-9.831,15.555c-8.655,7.229-17.105,20.178-22.655,36.106l-2.592,7.437
	c-9.56-11.576-17.283-24.532-22.939-38.358c6.013-6.583,13.577-11.489,21.909-14.343c6.64-2.275,11.93-7.384,14.242-14.018
	l0.368-1.054c2.313-6.639,1.342-13.918-2.442-19.839c-8.457-13.179-10.973-29.963-5.422-45.892l8.784-25.206
	c7.329-21.029,26.593-34.472,47.555-35.392c6.61-0.298,12.401-4.498,14.579-10.75l6.387-18.327L213.11,54.225z"/>
<path style="fill:#279FC9;" d="M224.731,33.726l-8.06,23.126L153.37,34.79l8.06-23.126c2.382-6.837,9.853-10.446,16.69-8.063
	l38.541,13.432C223.496,19.416,227.114,26.889,224.731,33.726z"/>
<path style="fill:#34ABE0;" d="M224.731,33.726l-8.06,23.126L171.674,41.17l8.06-23.126c2.382-6.837,9.853-10.446,16.69-8.063
	l20.236,7.053C223.496,19.416,227.114,26.889,224.731,33.726z"/>
<g>
	<path style="fill:#FCFCFC;" d="M185.013,172.666L185.013,172.666c-7.237-2.522-11.059-10.434-8.537-17.671l11.027-31.638
		c2.522-7.237,10.434-11.059,17.671-8.537l0,0c7.237,2.522,11.059,10.434,8.537,17.671l-11.027,31.638
		C200.162,171.366,192.25,175.188,185.013,172.666z"/>
	<path style="fill:#FCFCFC;" d="M158.364,291.297l-5.581,16.014c-4.259-1.075-8.501-2.343-12.725-3.815
		c-4.616-1.609-9.103-3.422-13.445-5.433l5.541-15.9c2.522-7.238,10.43-11.058,17.668-8.536c3.618,1.261,6.385,3.868,7.93,7.065
		C159.302,283.891,159.625,287.679,158.364,291.297z"/>
</g>
<path style="fill:#E8E8E8;" d="M331.148,260.947l0.137,1.108c0.862,6.972,4.962,13.081,10.981,16.709
	c13.405,8.084,23.098,22.01,25.168,38.756l3.202,25.893c-9.498,3.248-19.47,5.569-29.826,6.849
	c-43.812,5.417-85.52-8.922-116.177-36.048c2.487-8.56,7.099-16.311,13.303-22.551c4.948-4.984,7.437-11.908,6.574-18.879
	l-0.137-1.108c-0.862-6.972-4.962-13.081-10.975-16.71c-13.405-8.084-23.1-22.015-25.168-38.756l-3.276-26.497
	c-2.731-22.095,8.601-42.676,26.994-52.776c5.797-3.186,9.129-9.526,8.317-16.091l-2.382-19.268l58.139-7.188l2.382,19.268
	c0.812,6.564,5.583,11.903,11.986,13.581c20.293,5.317,36.302,22.518,39.034,44.613l3.276,26.497
	c2.07,16.74-3.94,32.613-14.972,43.718C332.774,247.052,330.286,253.976,331.148,260.947z"/>
<path style="fill:#D6D6D6;" d="M296.023,94.397l1.609,13.015l-36.506,4.513c-1.725,0.213-3.202,1.108-4.194,2.373
	c-0.986,1.272-1.493,2.922-1.28,4.646c0.812,6.57-0.378,12.634-2.939,15.426c-8.151,8.834-12.242,28.519-9.51,50.62l3.276,26.491
	c2.07,16.74,7.603,31.192,14.538,40.07c3.109,3.994,5.47,10.306,6.333,17.284l0.137,1.108c0.862,6.972,0.111,13.681-1.933,18.299
	c-4.563,10.312-6.41,25.664-4.341,42.404l0.967,7.816c-13.694-6.151-26.353-14.353-37.544-24.249
	c2.481-8.565,7.093-16.311,13.302-22.557c4.949-4.978,7.431-11.901,6.569-18.873l-0.137-1.108
	c-0.863-6.978-4.955-13.076-10.968-16.71c-13.415-8.077-23.1-22.015-25.168-38.756l-3.276-26.491
	c-2.732-22.101,8.594-42.681,26.987-52.781c5.796-3.191,9.13-9.52,8.317-16.091l-2.381-19.262L296.023,94.397z"/>
<path style="fill:#6ff0c0;" d="M297.374,70.871l3.005,24.305l-66.53,8.225l-3.005-24.305c-0.888-7.185,4.214-13.727,11.399-14.616
	l40.505-5.008C289.935,58.585,296.486,63.686,297.374,70.871z"/>
<path style="fill:#FF525D;" d="M297.374,70.871l3.005,24.305l-47.292,5.847l-3.005-24.305c-0.888-7.185,4.214-13.727,11.399-14.616
	l21.268-2.63C289.935,58.585,296.486,63.686,297.374,70.871z"/>
<g>
	<path style="fill:#FCFCFC;" d="M323.233,213.045L323.233,213.045c-7.606,0.94-14.534-4.464-15.475-12.07l-4.111-33.252
		c-0.94-7.606,4.464-14.535,12.07-15.475l0,0c7.606-0.94,14.534,4.464,15.475,12.07l4.111,33.252
		C336.243,205.176,330.84,212.104,323.233,213.045z"/>
	<path style="fill:#FCFCFC;" d="M351.827,331.223l2.08,16.83c-4.295,0.921-8.661,1.66-13.099,2.209
		c-4.851,0.6-9.678,0.959-14.461,1.076l-2.066-16.71c-0.94-7.607,4.461-14.531,12.068-15.472c3.803-0.47,7.438,0.644,10.237,2.826
		C349.393,324.165,351.357,327.419,351.827,331.223z"/>
</g>
<path style="fill:#6ff0c0;" d="M472.65,191.708l-1.149,12.737l-2.581,28.526l-17,187.81C404.961,476.557,334.619,512,256.001,512
	c-42.224,0-82.066-10.219-117.175-28.327c-30.26-15.611-57.01-37.073-78.743-62.892L40.491,204.456l-1.149-12.748H472.65z"/>
<g>
	<path style="fill:#6ff0c0;" d="M468.923,232.97l-3.803,41.973l-4.127,45.589l-9.07,100.247
		c-46.958,55.777-117.3,91.219-195.918,91.219c-42.224,0-82.066-10.219-117.175-28.327l-17.868-197.517
		c-2.591-28.567,19.905-53.185,48.588-53.185L468.923,232.97L468.923,232.97z"/>
	<path style="fill:#6ff0c0;" d="M491.584,211.134c-471.225,0,0.05,0-471.175,0c-5.58,0-10.104-4.523-10.104-10.104v-31.179
		c0-5.58,4.523-10.104,10.104-10.104h471.175c5.58,0,10.104,4.523,10.104,10.104v31.179
		C501.688,206.609,497.165,211.134,491.584,211.134z"/>
</g>
<path style="fill:#FCFCFC;" d="M249.681,437.535v44.099c-20.666,0-34.07-0.112-42.711-2.598c-4.982-1.433-9.2-4.769-11.833-9.234
	l0,0c0-0.002,0-0.004-0.002-0.006c-1.649-4.563-4.26-15.054-0.267-22.934c2.644-5.222,9.411-5.375,11.453-9.328h43.361V437.535z"/>
<path style="fill:#494B5B;" d="M213.409,384.021l22.001,44.001l-18.731-10.106c0,0-3.452,6.243-10.36,19.621
	c-2.042,3.952-4.384,8.528-7.028,13.752c-3.992,7.881-5.805,13.948-4.157,18.51l-23.217-39.367
	c-2.303-3.909-2.464-8.723-0.42-12.775l9.605-19.065l-17.341-10.108L213.409,384.021z"/>
<path style="fill:#FCFCFC;" d="M290.335,401.797l38.191-22.049c10.333,17.897,16.938,29.561,19.106,38.287
	c1.25,5.031,0.47,10.352-2.079,14.865l0,0c-0.002,0.001-0.003,0.002-0.004,0.004c-3.127,3.709-10.908,11.216-19.729,11.7
	c-5.845,0.322-9.36-5.463-13.804-5.255L290.335,401.797z"/>
<path style="fill:#494B5B;" d="M262.127,459.966l27.105-41.054l0.612,21.274c0,0,7.134-0.132,22.172-0.838
	c4.444-0.208,9.579-0.467,15.424-0.789c8.821-0.484,14.982-1.947,18.109-5.656l-22.486,39.79c-2.233,3.949-6.323,6.495-10.853,6.751
	l-21.314,1.214l-0.084,20.072L262.127,459.966z"/>
<path style="fill:#FCFCFC;" d="M238.042,385.285l-38.191-22.049c10.333-17.897,17.132-29.449,23.605-35.69
	c3.731-3.598,8.73-5.583,13.914-5.631l0,0c0.002,0.001,0.003,0.002,0.006,0.001c4.776,0.854,15.167,3.838,19.996,11.236
	c3.201,4.902-0.05,10.838,2.351,14.582L238.042,385.285z"/>
<path style="fill:#494B5B;" d="M302.522,380.63l-49.106-2.947l18.117-11.168c0,0-3.681-6.112-11.811-18.783
	c-2.402-3.744-5.194-8.061-8.395-12.963c-4.828-7.398-9.176-12.002-13.952-12.855l45.702-0.422
	c4.537-0.041,8.787,2.228,11.273,6.024l11.709,17.851l17.425-9.963L302.522,380.63z"/>
<g>
	<path style="fill:#FCFCFC;" d="M120.586,239.251c0-1.95,1.794-3.667,4.523-3.667h16.146c10.295,0,18.407,4.836,18.407,17.94v0.39
		c0,13.104-8.424,18.095-19.187,18.095h-7.722v16.848c0,2.496-3.042,3.744-6.083,3.744s-6.083-1.248-6.083-3.744
		C120.586,288.857,120.586,239.251,120.586,239.251z M132.753,246.192v16.457h7.722c4.369,0,7.021-2.496,7.021-7.8v-0.858
		c0-5.304-2.652-7.8-7.021-7.8h-7.722V246.192z"/>
	<path style="fill:#FCFCFC;" d="M170.273,292.601c-2.652,0-5.303-1.248-5.303-3.744v-49.606c0-2.574,3.042-3.667,6.083-3.667
		s6.083,1.092,6.083,3.667v42.743h17.784c2.34,0,3.509,2.652,3.509,5.304c0,2.652-1.169,5.304-3.509,5.304L170.273,292.601
		L170.273,292.601z"/>
	<path style="fill:#FCFCFC;" d="M199.447,287.609c0-0.234,0.077-0.545,0.156-0.858l14.507-47.578
		c0.858-2.73,4.368-4.056,7.956-4.056c3.588,0,7.097,1.326,7.955,4.056l14.586,47.578c0.078,0.312,0.156,0.624,0.156,0.858
		c0,2.886-4.446,4.991-7.8,4.991c-1.95,0-3.51-0.624-3.978-2.262l-2.652-9.75h-16.457l-2.652,9.75
		c-0.468,1.637-2.028,2.262-3.978,2.262C203.893,292.601,199.447,290.495,199.447,287.609z M227.76,271.23l-5.694-20.903
		l-5.694,20.903H227.76z"/>
	<path style="fill:#FCFCFC;" d="M272.689,277.313c0-9.438-24.725-7.799-24.725-26.051c0-11.7,10.217-16.146,19.967-16.146
		c4.134,0,15.521,0.781,15.521,6.864c0,2.107-1.404,6.396-4.836,6.396c-2.809,0-4.289-2.963-10.686-2.963
		c-5.538,0-7.8,2.262-7.8,4.68c0,7.8,24.725,6.317,24.725,25.973c0,11.232-8.19,17.316-19.499,17.316
		c-10.218,0-18.798-4.991-18.798-10.14c0-2.652,2.34-6.551,5.304-6.551c3.667,0,6.006,5.771,13.259,5.771
		C268.712,282.461,272.689,281.057,272.689,277.313z"/>
	<path style="fill:#FCFCFC;" d="M324.638,235.584c2.574,0,3.667,2.809,3.667,5.382c0,2.963-1.327,5.538-3.667,5.538h-10.763v42.353
		c0,2.496-3.042,3.744-6.083,3.744c-3.043,0-6.084-1.248-6.084-3.744v-42.353h-10.763c-2.34,0-3.667-2.574-3.667-5.538
		c0-2.574,1.093-5.382,3.667-5.382H324.638z"/>
	<path style="fill:#FCFCFC;" d="M333.145,239.251c0-2.574,3.042-3.667,6.083-3.667c3.042,0,6.083,1.092,6.083,3.667v49.606
		c0,2.496-3.042,3.744-6.083,3.744c-3.042,0-6.083-1.248-6.083-3.744V239.251z"/>
	<path style="fill:#FCFCFC;" d="M372.299,246.192c-4.446,0-7.021,2.496-7.021,7.8v20.669c0,5.304,2.575,7.799,7.098,7.799
		c6.24,0,6.63-4.757,6.864-7.799c0.234-2.886,2.886-3.665,6.005-3.665c4.212,0,6.162,1.092,6.162,5.771
		c0,10.374-8.424,16.301-19.577,16.301c-10.217,0-18.719-4.991-18.719-18.407v-20.669c0-13.415,8.502-18.408,18.719-18.408
		c11.154,0,19.577,5.616,19.577,15.521c0,4.68-1.95,5.772-6.083,5.772c-3.277,0-5.928-0.858-6.083-3.665
		C379.163,251.185,378.929,246.192,372.299,246.192z"/>
</g>
<g>
</g>
<g>
</g>
<g>
</g>
<g>
</g>
<g>
</g>
<g>
</g>
<g>
</g>
<g>
</g>
<g>
</g>
<g>
</g>
<g>
</g>
<g>
</g>
<g>
</g>
<g>
</g>
<g>
</g>
</svg>
