<svg id="Layer_1" enable-background="new 0 0 256 256" height="512" viewBox="0 0 256 256" width="512" xmlns="http://www.w3.org/2000/svg"><g><g><g><path d="m46.034 48.069h111.899v124.372h-111.899z" fill="#59cc79"/></g><g><path d="m157.933 174.441h-111.899c-1.104 0-2-.896-2-2v-124.372c0-1.104.896-2 2-2h111.899c1.104 0 2 .896 2 2v124.373c0 1.104-.895 1.999-2 1.999zm-109.899-4h107.899v-120.372h-107.899z" fill="#000000"/></g></g><g><path d="m115.231 107.083-16.517-28.506h15.659c1.046 0 2.013.558 2.537 1.463l11.44 19.775z" fill="#f4efed"/></g><g><path d="m115.233 109.083c-.691 0-1.362-.358-1.732-.998l-16.518-28.505c-.358-.619-.359-1.382-.002-2.002s1.017-1.001 1.733-1.001h15.659c1.755 0 3.391.944 4.268 2.463l11.44 19.774c.269.465.34 1.018.196 1.535-.143.518-.488.956-.958 1.216l-13.119 7.267c-.306.17-.639.251-.967.251zm-13.049-28.506 13.794 23.806 9.62-5.33-10.42-18.011c-.166-.287-.475-.465-.806-.465z" fill="#000000"/></g><g><path d="m100.697 122.657h32.049l-7.841 13.699c-.522.912-1.493 1.475-2.543 1.475h-21.664v-15.174z" fill="#f4efed"/></g><g><path d="m122.361 139.831h-21.664c-1.104 0-2-.895-2-2v-15.174c0-1.104.896-2 2-2h32.048c.713 0 1.373.38 1.73.997.358.617.36 1.378.006 1.997l-7.841 13.699c-.876 1.53-2.515 2.481-4.279 2.481zm-19.664-4h19.664c.333 0 .643-.179.808-.468l6.127-10.706h-26.599z" fill="#000000"/></g><g><path d="m73.539 122.657 7.853 13.701c.522.911 1.492 1.473 2.543 1.473h12.458v2.634c0 1.296 1.559 1.954 2.488 1.05l10.587-10.31c.592-.577.59-1.528-.003-2.103l-10.587-10.241c-.93-.899-2.484-.241-2.484 1.053v2.743z" fill="#f4efed"/></g><g><path d="m73.539 122.657-3.414-6.148c-.502-.904-.49-2.005.03-2.898l12.275-21.071 13.034 7.597-13.074 22.52z" fill="#f4efed"/></g><g><path d="m97.859 143.932c-.455 0-.913-.09-1.35-.274-1.286-.543-2.118-1.796-2.118-3.193v-.634h-10.457c-1.763 0-3.402-.95-4.278-2.479l-7.853-13.7c-.354-.619-.353-1.38.005-1.998.357-.617 1.017-.997 1.73-.997h20.854v-.743c0-1.394.83-2.646 2.113-3.19s2.76-.269 3.762.701l10.587 10.24c.679.658 1.054 1.54 1.056 2.485.001.945-.37 1.829-1.047 2.488l-10.587 10.31c-.662.643-1.532.983-2.417.984zm-20.869-19.275 6.137 10.706c.165.289.475.468.807.468h12.458c1.104 0 2 .896 2 2v1.367l9.285-9.042-9.285-8.981v1.481c0 1.104-.896 2-2 2h-19.402z" fill="#000000"/></g><g><path d="m82.39 124.657h-8.852c-.727 0-1.396-.394-1.749-1.029l-3.413-6.148c-.84-1.513-.82-3.381.051-4.876l12.275-21.07c.267-.459.705-.792 1.218-.927.511-.134 1.059-.061 1.517.206l13.034 7.597c.953.556 1.276 1.778.722 2.732l-13.074 22.52c-.357.615-1.016.995-1.729.995zm-7.674-4h6.523l11.494-19.797-9.581-5.584-11.268 19.342c-.165.282-.168.635-.009.921z" fill="#000000"/></g><g><path d="m107.601 78.577h-16.008c-1.061 0-2.039.573-2.557 1.498l-5.877 10.492-3.027-1.706c-1.13-.637-2.469.4-2.136 1.653l4.156 15.632c.212.796 1.038 1.261 1.829 1.03l15.101-4.43c1.229-.361 1.437-2.014.335-2.667l-3.046-1.805z" fill="#f4efed"/></g><g><path d="m83.563 109.236c-.587 0-1.168-.151-1.695-.448-.821-.462-1.406-1.219-1.648-2.129l-4.156-15.632c-.359-1.35.123-2.775 1.229-3.63 1.105-.856 2.606-.965 3.823-.278l1.279.721 4.896-8.742c.871-1.555 2.519-2.521 4.302-2.521h16.008c.712 0 1.372.379 1.729.995.358.616.361 1.376.008 1.996l-10.256 17.988 1.354.802c1.188.704 1.844 2.044 1.672 3.413s-1.138 2.505-2.462 2.894l-15.102 4.43c-.323.095-.653.141-.981.141zm-3.307-18.01 3.689 13.876 13.396-3.93-1.989-1.178c-.939-.557-1.258-1.763-.718-2.711l9.525-16.706h-12.566c-.336 0-.647.182-.812.475l-5.877 10.492c-.26.463-.693.805-1.205.948-.511.144-1.059.077-1.522-.184z" fill="#000000"/></g><g><path d="m136.196 113.874-5.897-11.091 2.408-1.443c1.088-.652.89-2.285-.323-2.658l-14.582-4.477c-.807-.248-1.655.235-1.854 1.056l-3.595 14.835c-.303 1.251 1.038 2.257 2.154 1.616l2.509-1.44 11.388 19.973 7.749-13.538c.499-.875.515-1.944.043-2.833z" fill="#f4efed"/></g><g><path d="m128.403 132.244h-.001c-.718 0-1.38-.386-1.736-1.009l-10.395-18.23-.769.441c-1.201.691-2.695.599-3.805-.233-1.109-.832-1.615-2.24-1.289-3.587l3.595-14.835c.224-.924.827-1.724 1.653-2.195.825-.471 1.821-.582 2.731-.302l14.582 4.477c1.327.407 2.255 1.516 2.423 2.894s-.468 2.678-1.658 3.391l-.778.466 5.005 9.414c.8 1.504.772 3.285-.075 4.764l-7.749 13.538c-.355.622-1.017 1.006-1.734 1.006zm-11.388-23.973c.176 0 .353.023.525.07.513.14.949.478 1.212.939l9.654 16.931 6.009-10.499c.16-.279.166-.615.015-.899h-.001l-5.897-11.091c-.5-.94-.175-2.107.738-2.655l1.378-.825-12.891-3.959-3.168 13.074 1.43-.821c.306-.175.65-.265.996-.265z" fill="#000000"/></g><g><path d="m4 156.229h42.034v30.273h-42.034z" fill="#59cc79"/></g><g><path d="m4 156.229h42.034v-108.16h-18.246z" fill="#59cc79"/></g><g><path d="m238.612 172.441h-192.578v14.061h192.578c3.883 0 7.031-3.148 7.031-7.031-.001-3.882-3.149-7.03-7.031-7.03z" fill="#125f97"/></g><g><path d="m235.102 172.441h-64.072v-84.372h44.249c10.948 0 19.824 8.875 19.824 19.824v64.548z" fill="#125f97"/></g><g><path d="m215.278 88.069h-26.908v48.924c0 2.761 2.239 5 5 5h41.732v-34.1c0-10.949-8.875-19.824-19.824-19.824z" fill="#f4efed"/></g><g><path d="m215.278 88.069h-8c10.948 0 19.824 8.875 19.824 19.824v64.549h8v-64.549c0-10.949-8.875-19.824-19.824-19.824z" fill="#31a7fc"/></g><g><path d="m215.278 88.069h-8c10.948 0 19.824 8.875 19.824 19.824v34.1h8v-34.1c0-10.949-8.875-19.824-19.824-19.824z" fill="#d6d1cf"/></g><g><path d="m247.516 134.064c-2.477 0-4.484-2.008-4.484-4.484v-14.478c0-2.477 2.008-4.484 4.484-4.484 2.477 0 4.484 2.008 4.484 4.484v14.478c0 2.476-2.008 4.484-4.484 4.484z" fill="#d6d1cf"/></g><g><path d="m224.521 160.503h10.581v-18.51h-18.51v10.581c0 4.379 3.55 7.929 7.929 7.929z" fill="#e0ff3b"/></g><g><path d="m238.612 172.441h-9c3.883 0 7.031 3.148 7.031 7.031s-3.148 7.031-7.031 7.031h9c3.883 0 7.031-3.148 7.031-7.031-.001-3.883-3.149-7.031-7.031-7.031z" fill="#31a7fc"/></g><g><path d="m27.788 48.069-23.788 108.16h8l23.788-108.16z" fill="#00ff75"/></g><g><path d="m4 156.229h8v30.273h-8z" fill="#00ff75"/></g><g><path d="m46.034 158.229h-42.034c-.606 0-1.179-.274-1.559-.747-.38-.472-.525-1.091-.395-1.683l23.788-108.16c.202-.917 1.014-1.57 1.953-1.57h18.246c1.104 0 2 .896 2 2v108.16c.001 1.104-.895 2-1.999 2zm-39.546-4h37.546v-104.16h-14.638z" fill="#000000"/></g><g><path d="m25.021 99.038c-.14 0-.281-.015-.423-.045-1.08-.233-1.767-1.297-1.534-2.377l2.587-12c.233-1.08 1.294-1.77 2.376-1.534 1.08.233 1.767 1.297 1.534 2.377l-2.587 12c-.203.937-1.032 1.579-1.953 1.579z" fill="#000000"/></g><g><path d="m46.034 188.502h-42.034c-1.105 0-2-.895-2-2v-30.273c0-1.105.895-2 2-2h42.034c1.104 0 2 .895 2 2v30.273c0 1.105-.896 2-2 2zm-40.034-4h38.034v-26.273h-38.034z" fill="#000000"/></g><g><path d="m238.612 188.502h-192.578c-1.104 0-2-.895-2-2v-14.061c0-1.105.896-2 2-2h192.578c4.979 0 9.03 4.051 9.03 9.03 0 4.98-4.051 9.031-9.03 9.031zm-190.578-4h190.578c2.774 0 5.03-2.257 5.03-5.031s-2.256-5.03-5.03-5.03h-190.578z" fill="#000000"/></g><g><path d="m171.03 105.735h-13.097c-1.105 0-2-.896-2-2s.895-2 2-2h13.097c1.104 0 2 .896 2 2s-.896 2-2 2z" fill="#000000"/></g><g><path d="m171.03 120.546h-13.097c-1.105 0-2-.896-2-2s.895-2 2-2h13.097c1.104 0 2 .896 2 2s-.896 2-2 2z" fill="#000000"/></g><g><path d="m171.03 135.357h-13.097c-1.105 0-2-.896-2-2 0-1.105.895-2 2-2h13.097c1.104 0 2 .895 2 2s-.896 2-2 2z" fill="#000000"/></g><g><path d="m171.03 150.169h-13.097c-1.105 0-2-.896-2-2 0-1.105.895-2 2-2h13.097c1.104 0 2 .895 2 2 0 1.104-.896 2-2 2z" fill="#000000"/></g><g><path d="m235.102 143.993h-41.732c-3.86 0-7-3.14-7-7v-48.924c0-1.104.895-2 2-2h26.908c12.034 0 21.824 9.79 21.824 21.824v34.101c0 1.104-.896 1.999-2 1.999zm-44.732-53.924v46.924c0 1.654 1.346 3 3 3h39.732v-32.101c0-9.828-7.996-17.824-17.824-17.824h-24.908z" fill="#000000"/></g><g><path d="m235.102 174.441h-64.072c-1.105 0-2-.896-2-2v-84.372c0-1.104.895-2 2-2h44.249c12.034 0 21.824 9.79 21.824 21.824v64.549c-.001 1.104-.897 1.999-2.001 1.999zm-62.072-4h60.072v-62.549c0-9.828-7.996-17.824-17.824-17.824h-42.248z" fill="#000000"/></g><g><path d="m247.516 136.064c-3.576 0-6.484-2.909-6.484-6.484v-14.478c0-3.576 2.909-6.484 6.484-6.484s6.484 2.909 6.484 6.484v14.478c0 3.575-2.909 6.484-6.484 6.484zm0-23.447c-1.37 0-2.484 1.114-2.484 2.484v14.478c0 1.37 1.114 2.484 2.484 2.484s2.484-1.114 2.484-2.484v-14.478c0-1.37-1.114-2.484-2.484-2.484z" fill="#000000"/></g><g><path d="m243.551 143.993h-8.449c-1.104 0-2-.895-2-2 0-1.104.896-2 2-2h8.449c1.083 0 1.965-.881 1.965-1.965v-3.965c0-1.105.896-2 2-2 1.105 0 2 .895 2 2v3.965c0 3.289-2.676 5.965-5.965 5.965z" fill="#000000"/></g><g><path d="m235.102 162.503h-10.581c-5.475 0-9.93-4.454-9.93-9.929v-10.581c0-1.104.896-2 2-2h18.51c1.104 0 2 .896 2 2v18.51c.001 1.104-.895 2-1.999 2zm-16.51-18.51v8.581c0 3.27 2.66 5.929 5.93 5.929h8.581v-14.51z" fill="#000000"/></g><g><path d="m35.753 157.436c-1.104 0-2-.896-2-2v-106.574c0-1.104.896-2 2-2s2 .896 2 2v106.574c0 1.104-.896 2-2 2z" fill="#000000"/></g><g><path d="m46.034 174.441h-41.241c-1.105 0-2-.896-2-2 0-1.105.895-2 2-2h41.241c1.104 0 2 .895 2 2s-.896 2-2 2z" fill="#000000"/></g><g><path d="m157.933 188.502h-45.663c-1.104 0-2-.895-2-2v-14.061c0-1.105.896-2 2-2h45.663c1.104 0 2 .895 2 2v14.061c0 1.105-.895 2-2 2zm-43.662-4h41.663v-10.061h-41.663z" fill="#000000"/></g><g><circle cx="74.156" cy="186.502" fill="#4b2c5e" r="21.429"/></g><g><circle cx="199.876" cy="186.502" fill="#4b2c5e" r="21.429"/></g><g><path d="m74.156 209.931c-12.919 0-23.429-10.51-23.429-23.429s10.51-23.429 23.429-23.429c12.918 0 23.429 10.51 23.429 23.429s-10.511 23.429-23.429 23.429zm0-42.858c-10.713 0-19.429 8.716-19.429 19.429s8.716 19.429 19.429 19.429 19.429-8.716 19.429-19.429-8.716-19.429-19.429-19.429z" fill="#000000"/></g><g><path d="m199.876 209.931c-12.919 0-23.429-10.51-23.429-23.429s10.51-23.429 23.429-23.429c12.918 0 23.429 10.51 23.429 23.429s-10.51 23.429-23.429 23.429zm0-42.858c-10.713 0-19.429 8.716-19.429 19.429s8.716 19.429 19.429 19.429 19.429-8.716 19.429-19.429-8.716-19.429-19.429-19.429z" fill="#000000"/></g><g><circle cx="74.156" cy="186.502" fill="#f4efed" r="8.686"/></g><g><circle cx="199.876" cy="186.502" fill="#f4efed" r="8.686"/></g><g><path d="m74.156 197.189c-5.892 0-10.686-4.794-10.686-10.686 0-5.893 4.794-10.686 10.686-10.686s10.686 4.794 10.686 10.686-4.794 10.686-10.686 10.686zm0-17.373c-3.687 0-6.686 2.999-6.686 6.686s2.999 6.686 6.686 6.686 6.686-3 6.686-6.686c0-3.687-3-6.686-6.686-6.686z" fill="#000000"/></g><g><path d="m199.876 197.189c-5.892 0-10.686-4.794-10.686-10.686 0-5.893 4.794-10.686 10.686-10.686s10.686 4.794 10.686 10.686-4.793 10.686-10.686 10.686zm0-17.373c-3.687 0-6.686 2.999-6.686 6.686s2.999 6.686 6.686 6.686 6.686-3 6.686-6.686c0-3.687-2.999-6.686-6.686-6.686z" fill="#000000"/></g></g></svg>