<?xml version="1.0" encoding="iso-8859-1"?>
<!-- Generator: Adobe Illustrator 19.0.0, SVG Export Plug-In . SVG Version: 6.00 Build 0)  -->
<svg version="1.1" id="Capa_1" xmlns="http://www.w3.org/2000/svg" xmlns:xlink="http://www.w3.org/1999/xlink" x="0px" y="0px"
	 viewBox="0 0 512 512" style="enable-background:new 0 0 512 512;" xml:space="preserve">
<path style="fill:#60C28E;" d="M256,47.176c115.146,0,208.823,93.678,208.823,208.823c0,15.65-12.687,28.336-28.336,28.336
	s-28.336-12.686-28.336-28.336c0-83.896-68.255-152.151-152.151-152.151c-65.044,0-122.902,41.309-143.974,102.793
	c-5.074,14.803-21.188,22.69-35.993,17.618c-14.804-5.074-22.692-21.188-17.618-35.993C87.337,103.877,166.74,47.176,256,47.176z"/>
<path style="fill:#59B382;" d="M256,47.176c-57.239,0-110.423,23.317-148.843,62.299c41.84-15.011,85.928-16.443,118.602-2.599
	c9.822-1.988,19.941-3.027,30.241-3.027c83.896,0,152.151,68.255,152.151,152.151c0,15.65,12.687,28.336,28.336,28.336
	S464.824,271.65,464.824,256C464.823,140.854,371.146,47.176,256,47.176z"/>
<path style="fill:#60C28E;" d="M256,464.823c-115.146,0-208.823-93.678-208.823-208.823c0-15.65,12.687-28.336,28.336-28.336
	S103.849,240.35,103.849,256c0,83.896,68.255,152.151,152.151,152.151c65.044,0,122.902-41.309,143.974-102.793
	c5.074-14.803,21.189-22.69,35.993-17.618c14.804,5.074,22.692,21.188,17.618,35.993C424.663,408.123,345.259,464.823,256,464.823z"
	/>
<path style="fill:#59B382;" d="M256,464.823c57.239,0,110.423-23.317,148.843-62.299c-41.84,15.011-85.928,16.443-118.602,2.599
	c-9.822,1.988-19.941,3.027-30.241,3.027c-83.896,0-152.151-68.255-152.151-152.151c0-15.65-12.687-28.336-28.336-28.336
	s-28.336,12.686-28.336,28.336C47.176,371.146,140.854,464.823,256,464.823z"/>
<g>
	<path style="fill:#70f0c0;" d="M301.887,445.484c-52.534,0-99.353-24.446-129.719-62.578
		c-27.046-17.926-48.06-44.258-59.282-75.238h11.19h9.674c13.229,0,20.694-15.19,12.613-25.664L91.216,210.53
		c-6.378-8.266-18.849-8.266-25.227,0l-55.146,71.474c-8.081,10.474-0.615,25.664,12.613,25.664h9.674h20.518
		c23.053,90.237,105.032,157.155,202.35,157.155c41.7,0,81.246-12.378,114.501-34.17
		C349.592,440.176,326.36,445.484,301.887,445.484z"/>
	<path style="fill:#70f0c0;" d="M210.112,66.516c52.534,0,99.353,24.446,129.719,62.577c27.046,17.926,48.06,44.258,59.282,75.238
		h-11.19h-9.674c-13.229,0-20.694,15.19-12.613,25.664l55.147,71.473c6.378,8.266,18.849,8.266,25.227,0l55.147-71.473
		c8.081-10.473,0.615-25.664-12.613-25.664h-9.674h-20.518C435.297,114.095,353.318,47.176,256,47.176
		c-41.7,0-81.246,12.377-114.501,34.17C162.407,71.824,185.64,66.516,210.112,66.516z"/>
</g>
<path style="fill:#495059;" d="M300.768,356.695h-89.535c-9.163,0-16.591-7.428-16.591-16.591V189.481
	c0-9.163,7.428-16.591,16.591-16.591h89.535c9.163,0,16.591,7.428,16.591,16.591v150.623
	C317.359,349.267,309.931,356.695,300.768,356.695z"/>
<path style="fill:#41464F;" d="M312.193,352.115c-94.146-15.474-89.877-130.673-88.229-179.226h-12.731
	c-9.163,0-16.591,7.428-16.591,16.592v150.623c0,9.163,7.428,16.591,16.591,16.591h89.535
	C305.2,356.695,309.217,354.946,312.193,352.115z"/>
<path style="fill:#C7C9CC;" d="M272.728,143.655h-33.458c-5.233,0-9.476,4.243-9.476,9.476v19.757h52.41v-19.757
	C282.204,147.898,277.962,143.655,272.728,143.655z"/>
<path style="fill:#B2B5B8;" d="M244.57,143.655h-5.299c-5.233,0-9.476,4.242-9.476,9.476v19.757h33.539
	C252.777,168.169,246.623,154.504,244.57,143.655z"/>
<path style="fill:#F4BC48;" d="M317.359,340.103v-85.6H194.64v85.6c0,9.163,7.428,16.591,16.591,16.591h89.535
	C309.931,356.695,317.359,349.267,317.359,340.103z"/>
<path style="fill:#EBAC40;" d="M312.193,352.115c-55.65-9.146-76.908-53.137-84.651-97.612h-32.901v85.6
	c0,9.163,7.428,16.591,16.591,16.591h89.535C305.2,356.695,309.217,354.946,312.193,352.115z"/>
<g>
	<ellipse style="fill:#FFFFFF;" cx="219.413" cy="301.655" rx="13.499" ry="10.75"/>
	<ellipse style="fill:#FFFFFF;" cx="292.584" cy="301.655" rx="13.499" ry="10.75"/>
	<path style="fill:#FFFFFF;" d="M288.558,216.641c-4.142,0-7.5-3.358-7.5-7.5v-16.623c0-4.142,3.358-7.5,7.5-7.5s7.5,3.358,7.5,7.5
		v16.623C296.059,213.283,292.7,216.641,288.558,216.641z"/>
	<path style="fill:#FFFFFF;" d="M296.87,208.329h-16.623c-4.142,0-7.5-3.358-7.5-7.5s3.358-7.5,7.5-7.5h16.623
		c4.142,0,7.5,3.358,7.5,7.5C304.37,204.972,301.013,208.329,296.87,208.329z"/>
</g>
<path d="M227.282,298.428c4.142,0,7.5-3.358,7.5-7.5v-4.767c0-4.142-3.358-7.5-7.5-7.5s-7.5,3.358-7.5,7.5v4.767
	C219.782,295.069,223.139,298.428,227.282,298.428z M509.572,209.928c-3.97-8.078-12.028-13.096-21.029-13.096h-24.451
	c-12.395-43.453-38.664-82.624-74.424-110.808C351.192,55.704,304.972,39.677,256,39.677c-38.93,0-76.8,10.395-110.153,30.135
	c-0.147,0.087-0.293,0.174-0.44,0.261c-1.277,0.76-2.548,1.532-3.811,2.319c-0.103,0.064-0.206,0.126-0.308,0.19
	c-1.307,0.817-2.608,1.645-3.9,2.491c-0.025,0.016-0.046,0.035-0.071,0.051c-40.1,26.286-70.371,65.117-85.997,110.712
	c-3.255,9.497-2.353,19.767,2.289,28.465L4.906,277.422c-5.499,7.126-6.448,16.571-2.478,24.649
	c3.97,8.078,12.028,13.096,21.029,13.096h24.451c12.396,43.453,38.664,82.624,74.424,110.808
	c38.475,30.32,84.695,46.348,133.667,46.348c38.846,0,76.636-10.35,109.936-30.007c0.103-0.061,0.207-0.122,0.31-0.184
	c1.211-0.718,2.417-1.448,3.617-2.19c0.097-0.06,0.195-0.12,0.293-0.181c1.494-0.928,2.982-1.868,4.457-2.835
	c0.093-0.061,0.178-0.13,0.268-0.195c6.15-4.044,12.105-8.395,17.794-13.026c3.212-2.615,3.696-7.339,1.081-10.552
	c-2.616-3.212-7.338-3.695-10.552-1.081c-5.241,4.267-10.724,8.276-16.386,12.008c-20.46,9.221-42.301,13.902-64.929,13.902
	c-33.235,0-64.903-10.242-91.278-28.919c14.627,4.346,29.887,6.587,45.391,6.587c68.248,0,128.958-43.347,151.068-107.862
	c0.858-2.502,2.194-4.79,3.892-6.774l3.884,5.034c4.471,5.794,11.232,9.118,18.551,9.118c5.076,0,9.883-1.602,13.845-4.515
	c0.668,3.502,0.443,7.165-0.751,10.648c-8.489,24.769-21.501,47.308-38.677,66.991c-2.724,3.121-2.401,7.859,0.72,10.582
	c1.422,1.241,3.179,1.849,4.928,1.849c2.091,0,4.171-0.87,5.654-2.569c18.458-21.153,32.443-45.375,41.564-71.99
	c3.255-9.497,2.353-19.767-2.289-28.465l48.703-63.122C512.593,227.451,513.542,218.006,509.572,209.928z M65.509,190.699
	c14.488-42.274,42.508-78.297,79.621-102.758c20.475-9.236,42.334-13.925,64.982-13.925c33.235,0,64.903,10.242,91.277,28.919
	c-14.628-4.346-29.887-6.587-45.391-6.587c-68.248,0-128.958,43.347-151.068,107.862c-0.858,2.502-2.194,4.79-3.892,6.774
	l-3.884-5.034c-4.471-5.795-11.232-9.118-18.551-9.118c-5.076,0-9.883,1.602-13.845,4.515
	C64.09,197.845,64.315,194.182,65.509,190.699z M297.895,452.939c-13.685,2.903-27.715,4.384-41.895,4.384
	c-45.569,0-88.579-14.914-124.382-43.129c-34.73-27.369-59.838-65.86-70.701-108.383c-0.848-3.32-3.839-5.643-7.267-5.643H23.457
	c-3.288,0-6.117-1.762-7.567-4.712c-1.45-2.951-1.117-6.267,0.892-8.87l55.147-71.473c1.609-2.085,4.041-3.281,6.675-3.281
	c2.634,0,5.066,1.196,6.675,3.281l55.147,71.473c2.008,2.603,2.342,5.918,0.892,8.87c-1.45,2.951-4.279,4.712-7.567,4.712h-20.864
	c-2.445,0-4.736,1.192-6.14,3.193c-1.404,2.002-1.744,4.562-0.912,6.861c11.46,31.636,33.172,59.392,61.206,78.278
	C199.298,428.46,246.742,451.783,297.895,452.939z M392.879,302.927c-20.033,58.452-75.041,97.725-136.879,97.725
	c-28.446,0-56.002-8.297-79.686-23.994c-0.001-0.001-0.001-0.001-0.002-0.001c-22.814-15.121-41.089-36.69-52.289-61.487h9.727
	c9.001,0,17.059-5.018,21.029-13.096s3.02-17.523-2.478-24.649l-41.981-54.409c3.948-3.878,6.984-8.643,8.799-13.94
	c20.033-58.452,75.041-97.725,136.879-97.725c28.446,0,56.002,8.297,79.686,23.994c0.001,0.001,0.001,0.001,0.002,0.002
	c22.814,15.121,41.089,36.69,52.289,61.487h-9.727c-9.001,0-17.059,5.018-21.029,13.096c-3.97,8.078-3.021,17.523,2.478,24.649
	l41.981,54.409C397.73,292.863,394.694,297.63,392.879,302.927z M495.218,225.413l-55.147,71.473
	c-1.609,2.085-4.042,3.281-6.675,3.281c-2.634,0-5.066-1.196-6.675-3.281l-55.147-71.473c-2.008-2.603-2.342-5.919-0.892-8.87
	c1.45-2.951,4.279-4.712,7.567-4.712h20.864c2.445,0,4.736-1.192,6.14-3.193c1.404-2.002,1.744-4.562,0.912-6.861
	c-11.46-31.636-33.172-59.392-61.206-78.278c-32.258-39.96-79.702-63.282-130.855-64.439c13.686-2.903,27.715-4.384,41.896-4.384
	c45.569,0,88.579,14.914,124.382,43.129c34.73,27.369,59.838,65.86,70.701,108.383c0.848,3.32,3.839,5.643,7.267,5.643h30.192
	c3.288,0,6.117,1.762,7.567,4.712C497.56,219.494,497.227,222.81,495.218,225.413z M300.768,165.388h-11.063v-12.256
	c0-9.361-7.615-16.976-16.976-16.976h-33.458c-9.36,0-16.976,7.615-16.976,16.976v12.257h-11.063
	c-13.284,0-24.091,10.807-24.091,24.091v4.37c0,4.142,3.358,7.5,7.5,7.5c4.142,0,7.5-3.358,7.5-7.5v-4.37
	c0-5.013,4.078-9.091,9.091-9.091h89.535c5.013,0,9.091,4.078,9.091,9.091v57.522H202.14v-21.173c0-4.142-3.358-7.5-7.5-7.5
	c-4.142,0-7.5,3.358-7.5,7.5v114.274c0,13.284,10.807,24.091,24.091,24.091h89.535c13.284,0,24.091-10.807,24.091-24.091V189.481
	C324.859,176.197,314.052,165.388,300.768,165.388z M274.704,165.388h-37.409v-12.256c0-1.09,0.886-1.976,1.976-1.976h33.458
	c1.089,0,1.976,0.886,1.976,1.976v12.256H274.704z M309.859,340.103c0,5.013-4.078,9.091-9.091,9.091h-89.535
	c-5.013,0-9.091-4.078-9.091-9.091v-78.1H309.86v78.1H309.859z M284.717,298.428c4.142,0,7.5-3.358,7.5-7.5v-4.767
	c0-4.142-3.358-7.5-7.5-7.5s-7.5,3.358-7.5,7.5v4.767C277.217,295.069,280.575,298.428,284.717,298.428z M256,302.088
	c5.07,0,9.89-2.195,13.226-6.021c2.721-3.123,2.396-7.86-0.727-10.582c-3.124-2.721-7.861-2.396-10.582,0.727
	c-0.285,0.328-0.914,0.877-1.917,0.877c-1.003,0-1.632-0.549-1.917-0.877c-2.722-3.123-7.46-3.447-10.582-0.727
	c-3.123,2.722-3.448,7.459-0.727,10.582C246.11,299.893,250.93,302.088,256,302.088z M280.246,338.271h16.622
	c4.142,0,7.5-3.358,7.5-7.5c0-4.142-3.358-7.5-7.5-7.5h-16.622c-4.142,0-7.5,3.358-7.5,7.5
	C272.746,334.913,276.104,338.271,280.246,338.271z"/>
<g>
</g>
<g>
</g>
<g>
</g>
<g>
</g>
<g>
</g>
<g>
</g>
<g>
</g>
<g>
</g>
<g>
</g>
<g>
</g>
<g>
</g>
<g>
</g>
<g>
</g>
<g>
</g>
<g>
</g>
</svg>
