<?xml version="1.0" encoding="iso-8859-1"?>
<!-- Generator: Adobe Illustrator 19.0.0, SVG Export Plug-In . SVG Version: 6.00 Build 0)  -->
<svg version="1.1" id="Capa_1" xmlns="http://www.w3.org/2000/svg" xmlns:xlink="http://www.w3.org/1999/xlink" x="0px" y="0px"
	 viewBox="0 0 512 512" style="enable-background:new 0 0 512 512;" xml:space="preserve">
<circle style="fill:#34ABE0;" cx="256" cy="255.999" r="255.999"/>
<circle style="fill:#72BBE8;" cx="256" cy="213.295" r="213.295"/>
<path style="fill:#D6D6D6;" d="M377.777,18.334l2.498,15.002l-47.416,7.895l-2.498-15.002c-0.732-4.401,2.24-8.562,6.641-9.294
	l31.486-5.242C372.884,10.96,377.045,13.933,377.777,18.334z"/>
<path style="fill:#E8E8E8;" d="M377.777,18.334l2.498,15.002l-31.658,5.271l-2.498-15.002c-0.732-4.401,2.24-8.562,6.641-9.294
	l15.728-2.619C372.884,10.96,377.045,13.933,377.777,18.334z"/>
<path style="fill:#D6D6D6;" d="M413.249,34.714l0.327,1.961L302.437,55.181l-0.327-1.961c-0.978-5.873,2.992-11.428,8.864-12.406
	l89.868-14.964C406.717,24.872,412.271,28.84,413.249,34.714z"/>
<path style="fill:#E8E8E8;" d="M413.249,34.714l0.327,1.961l-81.421,13.558l-0.327-1.961c-0.978-5.873,2.992-11.428,8.865-12.406
	l60.15-10.015C406.717,24.872,412.271,28.84,413.249,34.714z"/>
<path style="fill:#EF4152;" d="M427.848,45.676l32.044,192.447c-10.294,4.978-21.465,8.59-33.321,10.564
	c-24.16,4.023-47.844,0.692-68.766-8.364c-16.105-6.964-30.573-17.323-42.363-30.326l-23.59-141.676
	c-1.306-7.844,3.9-15.27,11.669-16.747c0.112-0.029,0.226-0.048,0.34-0.067L411.038,33.66
	C418.996,32.335,426.523,37.718,427.848,45.676z"/>
<path style="fill:#FF525D;" d="M427.848,45.676l32.044,192.447c-10.294,4.978-21.465,8.59-33.321,10.564
	c-24.16,4.023-47.844,0.692-68.766-8.364L328.159,62.275c-1.325-7.958,4.051-15.488,12.009-16.813l70.87-11.8
	C418.996,32.335,426.523,37.718,427.848,45.676z"/>
<path style="fill:#FF6E7C;" d="M429.807,225.439L429.807,225.439c-6.002,0.999-11.678-3.056-12.677-9.058L392.455,68.19
	c-0.999-6.002,3.056-11.678,9.058-12.677l0,0c6.002-0.999,11.678,3.056,12.677,9.058l24.675,148.191
	C439.864,218.765,435.809,224.44,429.807,225.439z"/>
<g>
	<path style="fill:#EF4152;" d="M371.491,102.141l-8.027,1.336c-2.694,0.448-5.241-1.372-5.691-4.066l-5.12-30.749
		c-0.448-2.694,1.372-5.241,4.066-5.69l8.027-1.336c2.694-0.448,5.241,1.372,5.691,4.066l5.12,30.75
		C376.005,99.145,374.185,101.692,371.491,102.141z"/>
	<path style="fill:#EF4152;" d="M344.521,89.941l-1.336-8.027c-0.448-2.694,1.372-5.241,4.066-5.691L378,71.104
		c2.694-0.448,5.241,1.372,5.691,4.066l1.336,8.027c0.448,2.694-1.372,5.241-4.066,5.69l-30.749,5.12
		C347.517,94.456,344.97,92.636,344.521,89.941z"/>
</g>
<path style="fill:#5C5E70;" d="M301.073,151.543L256.136,340.72c-27.393,8.954-57.514,10.707-87.607,3.559
	c-68.303-16.224-116.135-73.484-123.573-139.444L70.619,96.801L301.073,151.543z"/>
<g>
	<path style="fill:#E8E8E8;" d="M293.217,101.227l-19.388-4.606l5.612-23.625c0.86-3.62,4.491-5.857,8.11-4.997l6.28,1.492
		c3.62,0.86,5.857,4.491,4.998,8.11L293.217,101.227z"/>
	<path style="fill:#E8E8E8;" d="M119.647,59.998l-19.388-4.606l5.612-23.625c0.86-3.62,4.491-5.857,8.11-4.997l6.28,1.492
		c3.62,0.86,5.857,4.491,4.997,8.11L119.647,59.998z"/>
</g>
<g>
	<path style="fill:#D6D6D6;" d="M106.813,56.949l-6.554-1.557l5.612-23.625c0.86-3.62,4.491-5.857,8.11-4.997l0,0L106.813,56.949z"
		/>
	<path style="fill:#D6D6D6;" d="M280.384,98.179l-6.554-1.557l5.612-23.625c0.86-3.62,4.491-5.857,8.11-4.997l0,0L280.384,98.179z"
		/>
</g>
<path style="fill:#5C5560;" d="M299.004,100.799l-30.15-7.162c-2.987-0.709-5.984,1.137-6.695,4.124l-2.947,12.407l40.969,9.732
	l2.947-12.407C303.838,104.505,301.991,101.508,299.004,100.799z"/>
<path style="fill:#5C5E70;" d="M277.537,95.7l-8.684-2.063c-2.987-0.709-5.984,1.137-6.695,4.124l-2.947,12.407l8.684,2.063
	l2.947-12.407C271.553,96.837,274.55,94.99,277.537,95.7z"/>
<path style="fill:#279FC9;" d="M103.968,54.469l-8.684-2.063c-2.987-0.709-5.984,1.137-6.695,4.124l-2.947,12.407l8.684,2.063
	l2.947-12.407C97.982,55.606,100.98,53.76,103.968,54.469z"/>
<rect x="176.406" y="13.2" transform="matrix(-0.2311 0.9729 -0.9729 -0.2311 354.6718 -17.033)" style="fill:#494B5B;" width="15.321" height="236.861"/>
<path style="fill:#5C5560;" d="M125.434,59.568l-30.15-7.162c-2.987-0.709-5.984,1.137-6.695,4.124l-2.947,12.407l40.969,9.732
	l2.947-12.407C130.268,63.276,128.421,60.279,125.434,59.568z"/>
<path style="fill:#5C5E70;" d="M103.968,54.469l-8.684-2.063c-2.987-0.709-5.984,1.137-6.695,4.124l-2.947,12.407l8.684,2.063
	l2.947-12.407C97.982,55.606,100.98,53.76,103.968,54.469z"/>
<path style="fill:#E8E8E8;" d="M309.076,159.096L60.069,99.946l6.589-27.739c1.145-4.821,5.982-7.801,10.803-6.656l231.548,55.002
	c4.821,1.145,7.801,5.982,6.656,10.803L309.076,159.096z"/>
<g>
	<path style="fill:#494B5B;" d="M107.171,153.468l-6.825-1.622c-2.692-0.639-5.393,1.024-6.032,3.717l-3.172,13.356l-13.356-3.172
		c-2.692-0.639-5.393,1.024-6.032,3.717l-1.622,6.825c-0.639,2.692,1.024,5.393,3.717,6.032l13.356,3.172l-3.172,13.357
		c-0.639,2.692,1.024,5.393,3.717,6.032l6.825,1.622c2.692,0.639,5.393-1.024,6.032-3.717l3.172-13.357l13.357,3.172
		c2.692,0.639,5.393-1.024,6.032-3.717l1.622-6.825c0.639-2.692-1.024-5.393-3.717-6.032l-13.357-3.172l3.172-13.356
		C111.527,156.808,109.863,154.107,107.171,153.468z"/>
	<path style="fill:#494B5B;" d="M219.693,204.605l-1.622,6.825c-0.639,2.692,1.024,5.393,3.717,6.032l43.286,10.282
		c2.692,0.639,5.393-1.024,6.032-3.717l1.622-6.825c0.639-2.692-1.024-5.393-3.717-6.032l-43.286-10.282
		C223.034,200.249,220.332,201.913,219.693,204.605z"/>
</g>
<path style="fill:#EDBB4C;" d="M472.65,191.708l-1.149,12.737l-2.581,28.526l-17,187.81C404.961,476.557,334.619,512,256.001,512
	c-42.224,0-82.066-10.219-117.175-28.327c-30.26-15.611-57.01-37.073-78.743-62.892L40.491,204.456l-1.149-12.748H472.65z"/>
<g>
	<path style="fill:#FFD15C;" d="M468.918,232.971l-17,187.81C404.96,476.557,334.618,512,256,512
		c-42.224,0-82.066-10.219-117.175-28.327l-17.868-197.517c-2.591-28.567,19.905-53.185,48.588-53.185H468.918z"/>
	<path style="fill:#FFD15C;" d="M491.584,211.134c-471.225,0,0.05,0-471.175,0c-5.58,0-10.104-4.523-10.104-10.104v-31.179
		c0-5.58,4.523-10.104,10.104-10.104h471.175c5.58,0,10.104,4.523,10.104,10.104v31.179
		C501.688,206.609,497.165,211.134,491.584,211.134z"/>
</g>
<path style="fill:#FCFCFC;" d="M249.681,437.535v44.099c-20.666,0-34.07-0.112-42.711-2.598c-4.982-1.433-9.2-4.769-11.833-9.234
	l0,0c0-0.002,0-0.004-0.002-0.006c-1.649-4.563-4.26-15.054-0.267-22.934c2.644-5.222,9.411-5.375,11.453-9.328h43.361V437.535z"/>
<path style="fill:#494B5B;" d="M213.409,384.021l22.001,44.001l-18.731-10.106c0,0-3.452,6.243-10.36,19.621
	c-2.042,3.952-4.384,8.528-7.028,13.752c-3.992,7.881-5.805,13.948-4.157,18.51l-23.217-39.367
	c-2.303-3.909-2.464-8.723-0.42-12.775l9.605-19.065l-17.341-10.108L213.409,384.021z"/>
<path style="fill:#FCFCFC;" d="M290.335,401.797l38.191-22.049c10.333,17.897,16.938,29.561,19.106,38.287
	c1.25,5.031,0.47,10.352-2.079,14.865l0,0c-0.002,0.001-0.003,0.002-0.004,0.004c-3.127,3.709-10.908,11.216-19.729,11.7
	c-5.845,0.322-9.36-5.463-13.804-5.255L290.335,401.797z"/>
<path style="fill:#494B5B;" d="M262.127,459.966l27.105-41.054l0.612,21.274c0,0,7.134-0.132,22.172-0.838
	c4.444-0.208,9.579-0.467,15.424-0.789c8.821-0.484,14.982-1.947,18.109-5.656l-22.486,39.79c-2.233,3.949-6.323,6.495-10.853,6.751
	l-21.314,1.214l-0.084,20.072L262.127,459.966z"/>
<path style="fill:#FCFCFC;" d="M238.042,385.285l-38.191-22.049c10.333-17.897,17.132-29.449,23.605-35.69
	c3.731-3.598,8.73-5.583,13.914-5.631l0,0c0.002,0.001,0.003,0.002,0.006,0.001c4.776,0.854,15.167,3.838,19.996,11.236
	c3.201,4.902-0.05,10.838,2.351,14.582L238.042,385.285z"/>
<path style="fill:#494B5B;" d="M302.522,380.63l-49.106-2.947l18.117-11.168c0,0-3.681-6.112-11.811-18.783
	c-2.402-3.744-5.194-8.061-8.395-12.963c-4.828-7.398-9.176-12.002-13.952-12.855l45.702-0.422
	c4.537-0.041,8.787,2.228,11.273,6.024l11.709,17.851l17.425-9.963L302.522,380.63z"/>
<g>
	<path style="fill:#FCFCFC;" d="M81.892,239.328c0-2.496,2.651-3.744,5.303-3.744h15.99c7.8,0,15.6,2.809,15.6,13.884
		c0,6.317-2.496,10.451-6.631,12.246c4.758,1.794,8.033,4.68,8.033,12.479v1.637c0,12.324-6.863,16.77-15.678,16.77H87.195
		c-3.276,0-5.303-1.716-5.303-3.665V239.328z M93.981,257.034h8.19c2.964,0,4.446-2.73,4.446-5.381c0-2.73-1.482-5.461-4.446-5.461
		h-8.19V257.034z M101.781,281.993c3.9,0,6.24-2.184,6.24-7.176v-1.248c0-5.304-2.34-7.175-6.24-7.175h-7.8v15.599L101.781,281.993
		L101.781,281.993z"/>
	<path style="fill:#FCFCFC;" d="M122.61,287.609c0-0.234,0.077-0.545,0.156-0.858l14.507-47.578c0.858-2.73,4.368-4.056,7.956-4.056
		s7.097,1.326,7.955,4.056l14.586,47.578c0.078,0.312,0.156,0.624,0.156,0.858c0,2.886-4.446,4.991-7.8,4.991
		c-1.95,0-3.51-0.624-3.978-2.262l-2.652-9.75h-16.457l-2.652,9.75c-0.468,1.637-2.028,2.262-3.978,2.262
		C127.056,292.601,122.61,290.495,122.61,287.609z M150.923,271.23l-5.694-20.903l-5.694,20.903H150.923z"/>
	<path style="fill:#FCFCFC;" d="M201.313,235.584c2.575,0,3.667,2.809,3.667,5.382c0,2.963-1.327,5.538-3.667,5.538H190.55v42.353
		c0,2.496-3.042,3.744-6.083,3.744s-6.084-1.248-6.084-3.744v-42.353h-10.763c-2.34,0-3.665-2.574-3.665-5.538
		c0-2.574,1.092-5.382,3.665-5.382H201.313z"/>
	<path style="fill:#FCFCFC;" d="M243.591,235.584c2.575,0,3.667,2.809,3.667,5.382c0,2.963-1.327,5.538-3.667,5.538h-10.763v42.353
		c0,2.496-3.042,3.744-6.083,3.744s-6.084-1.248-6.084-3.744v-42.353h-10.763c-2.34,0-3.665-2.574-3.665-5.538
		c0-2.574,1.092-5.382,3.665-5.382H243.591z"/>
	<path style="fill:#FCFCFC;" d="M264.263,259.373h11.7c2.34,0,3.665,2.262,3.665,4.758c0,2.105-1.092,4.602-3.665,4.602h-11.7v13.26
		h20.903c2.34,0,3.667,2.496,3.667,5.381c0,2.496-1.092,5.226-3.667,5.226h-27.767c-2.652,0-5.303-1.248-5.303-3.744v-49.528
		c0-2.496,2.651-3.744,5.303-3.744h27.767c2.575,0,3.667,2.73,3.667,5.226c0,2.886-1.327,5.381-3.667,5.381h-20.903V259.373
		L264.263,259.373z"/>
	<path style="fill:#FCFCFC;" d="M294.14,239.251c0-1.95,1.482-3.667,3.744-3.667h16.145c10.686,0,19.187,3.978,19.187,16.692
		c0,8.735-3.978,13.728-9.438,15.833l9.515,17.238c0.312,0.468,0.39,1.014,0.39,1.403c0,3.042-4.055,6.317-7.642,6.317
		c-1.56,0-3.043-0.624-3.9-2.262l-10.686-20.747h-5.148v18.798c0,2.496-3.042,3.744-6.083,3.744c-3.042,0-6.083-1.248-6.083-3.744
		V239.251z M306.306,246.192v14.507h7.722c4.369,0,7.021-1.794,7.021-7.254s-2.652-7.254-7.021-7.254H306.306z"/>
	<path style="fill:#FCFCFC;" d="M339.694,239.251c0-2.574,3.042-3.667,6.083-3.667c3.042,0,6.083,1.092,6.083,3.667v49.606
		c0,2.496-3.042,3.744-6.083,3.744c-3.042,0-6.083-1.248-6.083-3.744V239.251z"/>
	<path style="fill:#FCFCFC;" d="M372.455,259.373h11.7c2.34,0,3.665,2.262,3.665,4.758c0,2.105-1.092,4.602-3.665,4.602h-11.7v13.26
		h20.903c2.34,0,3.667,2.496,3.667,5.381c0,2.496-1.092,5.226-3.667,5.226h-27.767c-2.652,0-5.303-1.248-5.303-3.744v-49.528
		c0-2.496,2.651-3.744,5.303-3.744h27.767c2.575,0,3.667,2.73,3.667,5.226c0,2.886-1.327,5.381-3.667,5.381h-20.903V259.373z"/>
	<path style="fill:#FCFCFC;" d="M425.729,277.313c0-9.438-24.725-7.799-24.725-26.051c0-11.7,10.218-16.146,19.967-16.146
		c4.134,0,15.521,0.781,15.521,6.864c0,2.107-1.404,6.396-4.836,6.396c-2.809,0-4.289-2.963-10.686-2.963
		c-5.538,0-7.8,2.262-7.8,4.68c0,7.8,24.725,6.317,24.725,25.973c0,11.232-8.19,17.316-19.499,17.316
		c-10.218,0-18.798-4.991-18.798-10.14c0-2.652,2.34-6.551,5.304-6.551c3.667,0,6.006,5.771,13.259,5.771
		C421.752,282.461,425.729,281.057,425.729,277.313z"/>
</g>
<g>
</g>
<g>
</g>
<g>
</g>
<g>
</g>
<g>
</g>
<g>
</g>
<g>
</g>
<g>
</g>
<g>
</g>
<g>
</g>
<g>
</g>
<g>
</g>
<g>
</g>
<g>
</g>
<g>
</g>
</svg>
