<?xml version="1.0" encoding="iso-8859-1"?>
<!-- Generator: Adobe Illustrator 19.0.0, SVG Export Plug-In . SVG Version: 6.00 Build 0)  -->
<svg version="1.1" id="Capa_1" xmlns="http://www.w3.org/2000/svg" xmlns:xlink="http://www.w3.org/1999/xlink" x="0px" y="0px"
	 viewBox="0 0 512 512" style="enable-background:new 0 0 512 512;" xml:space="preserve">
<path style="fill:#EA7786;" d="M305.059,7.5H206.94c-7.374,0-13.352,5.978-13.352,13.352v30.98c0,7.374,5.978,13.351,13.352,13.351
	h98.118c7.374,0,13.352-5.978,13.352-13.351v-30.98C318.41,13.478,312.433,7.5,305.059,7.5z"/>
<path style="fill:#E0F7FF;" d="M293.589,97.388V65.183h-75.177v32.205c0,7.036-4.099,13.427-10.493,16.362L181.9,125.693
	c-13.405,6.153-21.997,19.551-21.997,34.301v31.758c0,11.088,8.989,20.077,20.077,20.077h152.043
	c11.088,0,20.077-8.989,20.077-20.077v-31.758c0-14.75-8.592-28.148-21.997-34.301l-26.019-11.943
	C297.688,110.815,293.589,104.424,293.589,97.388z"/>
<path style="fill:#BDECFF;" d="M251.331,80.615h42.258V65.183h-75.177v32.204c0,7.036-4.099,13.428-10.493,16.363L181.9,125.693
	c-13.405,6.153-21.997,19.551-21.997,34.301v31.758c0,11.088,8.989,20.077,20.077,20.077h73.578
	c-25.273-22.15-22.174-86.217-19.207-115.848C235.224,87.255,242.561,80.615,251.331,80.615z"/>
<g>
	<ellipse style="fill:#EA7786;" cx="204.72" cy="175.65" rx="18.923" ry="15.07"/>
	<ellipse style="fill:#EA7786;" cx="307.29" cy="175.65" rx="18.923" ry="15.07"/>
</g>
<rect x="185.789" y="211.83" style="fill:#C0E5FF;" width="140.42" height="92.81"/>
<path style="fill:#B5E0FF;" d="M185.792,304.644h52.542c-17.485-21.03-18.433-57.273-18.433-76.429h106.307v-16.386H185.792V304.644
	z"/>
<path style="fill:#E0F7FF;" d="M332.022,304.644H179.978c-11.088,0-20.077,8.989-20.077,20.077v161.747
	c0,9.959,8.073,18.032,18.032,18.032h19.315c4.57,0,8.801-2.407,11.137-6.335l4.507-7.58c2.335-3.927,8.02-3.927,10.355,0
	l4.507,7.58c2.336,3.928,6.567,6.335,11.137,6.335h34.215c4.57,0,8.801-2.407,11.137-6.335l4.507-7.58
	c2.335-3.927,8.02-3.927,10.355,0l4.507,7.58c2.336,3.928,6.567,6.335,11.137,6.335h19.315c9.959,0,18.032-8.073,18.032-18.032
	V324.721C352.098,313.633,343.109,304.644,332.022,304.644z"/>
<path style="fill:#BDECFF;" d="M197.249,504.5c4.569,0,8.801-2.407,11.137-6.334l4.507-7.58c2.335-3.927,8.02-3.927,10.355,0
	l4.507,7.58c2.336,3.927,6.568,6.334,11.137,6.334h34.215c2.444,0,4.78-0.707,6.793-1.948
	c-48.286-30.238-62.82-139.35-65.035-197.908h-34.887c-11.088,0-20.077,8.989-20.077,20.077v161.747
	c0,9.959,8.073,18.032,18.032,18.032L197.249,504.5L197.249,504.5z"/>
<path d="M256,173.246c6.236,0,12.166-2.7,16.268-7.408c2.722-3.122,2.395-7.86-0.728-10.581c-3.122-2.722-7.861-2.396-10.581,0.728
	c-1.253,1.438-3.061,2.262-4.959,2.262s-3.706-0.824-4.959-2.262c-2.721-3.124-7.459-3.449-10.581-0.728
	c-3.123,2.721-3.449,7.459-0.728,10.581C243.833,170.546,249.764,173.246,256,173.246z M303.757,160.614v-6.683
	c0-4.143-3.357-7.5-7.5-7.5s-7.5,3.357-7.5,7.5v6.683c0,4.143,3.357,7.5,7.5,7.5C300.398,168.114,303.757,164.757,303.757,160.614z
	 M359.599,191.752v-31.758c0-17.626-10.351-33.765-26.368-41.117l-26.02-11.943c-3.719-1.707-6.122-5.454-6.122-9.546V72.683h3.97
	c11.498,0,20.852-9.354,20.852-20.852V20.852C325.91,9.354,316.557,0,305.059,0h-98.117c-11.498,0-20.852,9.354-20.852,20.852
	v30.979c0,11.498,9.354,20.852,20.852,20.852h3.97v24.705c0,4.092-2.403,7.839-6.122,9.546l-6.587,3.023
	c-3.765,1.729-5.415,6.181-3.688,9.945c1.263,2.751,3.98,4.373,6.821,4.373c1.047,0,2.11-0.221,3.124-0.686l6.587-3.023
	c9.029-4.146,14.864-13.243,14.864-23.179V72.683h60.178v24.705c0,9.935,5.835,19.033,14.864,23.179l26.02,11.943
	c10.707,4.914,17.626,15.702,17.626,27.484v31.758c0,6.934-5.643,12.576-12.577,12.576H179.979c-6.935,0-12.577-5.642-12.577-12.576
	v-31.758c0-7.775,2.947-15.167,8.299-20.811c2.85-3.007,2.723-7.754-0.283-10.604c-3.007-2.85-7.754-2.722-10.604,0.283
	c-8.004,8.444-12.412,19.5-12.412,31.132v31.758c0,14.639,11.467,26.645,25.891,27.52V297.2
	c-14.423,0.875-25.891,12.881-25.891,27.521v161.747c0,14.078,11.454,25.532,25.532,25.532h19.314
	c7.177,0,13.915-3.832,17.584-10.002l3.238-5.445l3.239,5.446c3.669,6.169,10.406,10.001,17.583,10.001h34.215
	c7.177,0,13.914-3.832,17.583-10.001l3.239-5.446l3.238,5.446c3.669,6.169,10.407,10.001,17.584,10.001h19.314
	c14.078,0,25.532-11.454,25.532-25.532v-8.521c0-4.143-3.357-7.5-7.5-7.5s-7.5,3.357-7.5,7.5v8.521
	c0,5.808-4.725,10.532-10.532,10.532h-19.314c-1.915,0-3.713-1.022-4.692-2.668l-4.507-7.579c-2.462-4.141-6.808-6.612-11.624-6.612
	c-4.816,0-9.162,2.472-11.624,6.611l-4.508,7.579c-0.979,1.646-2.776,2.669-4.691,2.669H238.89c-1.914,0-3.712-1.022-4.69-2.669
	l-4.508-7.578c-2.462-4.141-6.808-6.612-11.624-6.612c-4.816,0-9.162,2.472-11.624,6.612l-4.507,7.578
	c-0.979,1.646-2.776,2.669-4.691,2.669h-19.314c-5.808,0-10.532-4.725-10.532-10.532v-49.54
	c31.846-0.939,62.425-7.633,92.064-14.132c29.117-6.384,56.751-12.429,85.133-13.366v34.036c0,4.143,3.357,7.5,7.5,7.5
	s7.5-3.357,7.5-7.5V324.721c0-14.639-11.467-26.646-25.891-27.521v-77.929C348.131,218.396,359.599,206.391,359.599,191.752z
	 M283.275,57.683V36.342c0-4.143-3.357-7.5-7.5-7.5s-7.5,3.357-7.5,7.5v21.341h-24.552V36.342c0-4.143-3.357-7.5-7.5-7.5
	s-7.5,3.357-7.5,7.5v21.341H206.94c-3.227,0-5.852-2.625-5.852-5.851v-30.98c0-3.227,2.625-5.852,5.852-5.852h98.117
	c3.227,0,5.852,2.625,5.852,5.852v30.979c0,3.226-2.625,5.851-5.852,5.851L283.275,57.683L283.275,57.683z M193.292,219.328h125.416
	v77.815H193.292V219.328z M344.599,394.424c-30.08,0.957-59.664,7.431-88.346,13.719c-28.808,6.317-58.524,12.819-88.852,13.774
	v-27.202c31.846-0.939,62.425-7.633,92.064-14.132c29.117-6.384,56.751-12.429,85.133-13.366v27.207H344.599z M344.599,324.721
	v27.491c-30.08,0.958-59.664,7.431-88.346,13.719c-28.808,6.317-58.524,12.819-88.852,13.774V324.72
	c0-6.936,5.642-12.577,12.577-12.577h152.043C338.957,312.144,344.599,317.785,344.599,324.721z M223.242,160.614v-6.683
	c0-4.143-3.357-7.5-7.5-7.5s-7.5,3.357-7.5,7.5v6.683c0,4.143,3.357,7.5,7.5,7.5S223.242,164.757,223.242,160.614z"/>
<g>
</g>
<g>
</g>
<g>
</g>
<g>
</g>
<g>
</g>
<g>
</g>
<g>
</g>
<g>
</g>
<g>
</g>
<g>
</g>
<g>
</g>
<g>
</g>
<g>
</g>
<g>
</g>
<g>
</g>
</svg>
